{"glyphs":{"0":{"ha":833,"x_min":43,"x_max":792,"o":"m 43 238 q 64 438 43 322 q 113 633 85 554 q 190 772 142 713 q 497 889 283 889 q 725 826 658 889 q 792 629 792 763 q 770 434 792 556 q 721 234 749 313 q 644 94 693 156 q 338 -21 551 -21 q 110 42 176 -21 q 43 238 43 104 m 364 592 l 294 203 l 350 203 q 436 216 410 203 q 471 276 463 229 l 539 665 l 476 665 q 395 653 418 665 q 364 592 372 640 z "},"1":{"ha":833,"x_min":36,"x_max":735,"o":"m 696 0 l 36 0 l 75 222 l 310 222 l 374 590 l 136 574 l 176 796 l 492 868 l 700 868 l 586 222 l 735 222 l 696 0 z "},"2":{"ha":833,"x_min":-6,"x_max":800,"o":"m 157 629 l 161 836 q 500 889 336 889 q 744 839 686 889 q 800 692 800 790 q 773 526 800 594 q 669 406 746 457 q 542 333 592 354 q 346 261 458 299 l 339 222 l 711 222 l 672 0 l -6 0 l 25 174 q 65 297 39 257 q 108 359 90 338 q 154 402 125 381 q 206 438 183 424 q 270 473 229 453 q 339 506 311 493 q 418 540 367 518 q 503 578 469 563 l 515 653 q 407 660 457 660 q 157 629 286 660 z "},"3":{"ha":833,"x_min":10,"x_max":792,"o":"m 506 563 l 521 653 q 395 660 483 660 q 169 631 307 660 l 171 836 q 490 889 340 889 q 703 861 626 889 q 792 725 792 831 q 642 468 792 544 l 640 461 q 739 304 739 413 q 308 -21 739 -21 q 10 15 150 -21 l 88 244 q 294 213 207 213 q 446 221 381 213 l 461 310 l 238 333 l 272 535 l 506 563 z "},"4":{"ha":833,"x_min":-10,"x_max":790,"o":"m 374 0 l 397 139 l -10 139 l 21 313 l 322 868 l 790 868 l 703 378 l 789 378 l 747 139 l 661 139 l 638 0 l 374 0 m 475 660 l 308 378 l 439 378 l 489 660 l 475 660 z "},"5":{"ha":833,"x_min":3,"x_max":799,"o":"m 3 15 l 81 244 q 294 213 200 213 q 451 221 389 213 l 463 290 l 367 301 q 172 349 226 318 q 117 453 117 381 q 122 507 117 479 l 199 868 l 799 868 l 736 629 l 428 649 l 413 564 l 489 554 q 694 488 635 535 q 754 351 754 442 q 727 189 754 260 q 658 78 700 118 q 555 16 617 39 q 439 -14 493 -7 q 315 -21 385 -21 q 3 15 143 -21 z "},"6":{"ha":833,"x_min":49,"x_max":811,"o":"m 450 247 l 469 357 l 417 357 q 353 347 372 357 q 326 299 333 336 l 307 189 l 361 189 q 424 199 406 189 q 450 247 443 210 m 747 360 q 642 74 747 169 q 338 -21 538 -21 q 115 44 182 -21 q 49 246 49 110 q 69 439 49 324 q 119 633 89 554 q 206 772 150 713 q 563 889 313 889 q 693 877 613 889 q 811 853 774 865 l 733 640 q 534 660 629 660 q 389 647 439 660 l 374 563 l 440 563 q 656 529 576 563 q 747 360 747 490 z "},"7":{"ha":833,"x_min":126,"x_max":832,"o":"m 801 694 l 425 0 l 126 0 l 472 622 l 154 622 l 179 868 l 832 868 l 801 694 z "},"8":{"ha":833,"x_min":28,"x_max":781,"o":"m 489 889 q 556 889 489 889 q 701 842 622 889 q 781 692 781 796 q 744 544 781 613 q 651 438 708 475 l 650 428 q 713 365 690 406 q 736 272 736 324 q 681 103 736 171 q 338 -21 578 -21 q 28 182 28 -21 q 71 328 28 261 q 183 428 114 396 l 185 438 q 126 578 126 488 q 159 731 126 669 q 247 825 192 792 q 489 889 356 889 m 456 279 l 374 325 q 349 333 354 333 q 329 310 333 333 l 307 189 l 361 189 q 424 199 406 189 q 450 247 443 210 l 456 279 m 378 588 l 456 540 q 474 535 467 535 q 506 560 500 535 l 525 672 l 472 672 q 408 662 428 672 q 382 614 388 651 l 378 588 z "},"9":{"ha":833,"x_min":18,"x_max":788,"o":"m 385 621 l 368 522 l 421 522 q 484 533 465 522 q 510 581 503 543 l 528 679 l 474 679 q 410 669 429 679 q 385 621 390 658 m 464 317 l 397 317 q 146 365 206 317 q 86 510 86 413 q 192 794 86 699 q 497 889 299 889 q 720 823 653 889 q 788 619 788 757 q 768 435 788 543 q 631 88 725 196 q 348 -21 538 -21 q 18 15 158 -21 l 97 244 q 300 213 217 213 q 447 221 383 213 l 464 317 z "}," ":{"ha":278,"x_min":0,"x_max":0,"o":""},"!":{"ha":458,"x_min":19,"x_max":454,"o":"m 307 236 l 83 236 l 149 831 q 206 868 154 868 l 411 868 q 454 840 454 868 q 453 831 454 833 l 307 236 m 19 61 q 63 174 19 140 q 185 207 106 207 q 293 190 264 207 q 322 133 322 172 q 285 23 322 56 q 163 -10 249 -10 q 49 6 78 -10 q 19 61 19 22 z "},"\"":{"ha":694,"x_min":106,"x_max":715,"o":"m 385 874 l 369 785 q 238 417 368 779 l 106 417 l 106 738 q 119 865 106 788 q 175 903 125 903 l 342 903 q 385 874 385 903 m 715 874 l 700 785 q 568 417 699 779 l 436 417 l 436 738 q 450 865 436 788 q 506 903 456 903 l 672 903 q 715 874 715 903 z "},"#":{"ha":1036,"x_min":0,"x_max":1036,"o":"m 590 924 l 485 658 l 735 658 l 826 889 q 839 908 833 903 q 886 924 854 924 l 957 924 l 851 658 l 1036 658 l 1011 592 q 981 553 997 558 q 957 549 972 551 l 808 549 l 717 317 l 901 317 l 876 251 q 854 219 865 226 q 822 208 843 211 l 674 208 l 583 -21 q 571 -40 576 -35 q 524 -56 556 -56 l 453 -56 l 557 208 l 307 208 l 217 -21 q 204 -40 210 -35 q 157 -56 189 -56 l 86 -56 l 190 208 l 0 208 l 26 274 q 48 306 36 299 q 81 317 60 314 l 233 317 l 325 549 l 135 549 l 161 615 q 192 653 175 649 q 215 658 200 656 l 368 658 l 460 889 q 472 908 467 903 q 519 924 488 924 l 590 924 m 442 549 l 350 317 l 600 317 l 692 549 l 442 549 z "},"$":{"ha":765,"x_min":-4,"x_max":742,"o":"m 417 997 l 583 997 l 561 886 q 742 864 663 879 l 665 649 l 467 649 q 402 633 421 649 q 375 575 383 617 l 457 565 q 633 503 582 550 q 685 375 685 457 q 605 117 685 226 q 372 1 525 7 l 343 -139 l 172 -139 l 203 1 q -4 35 81 11 l 74 256 q 297 225 176 225 q 393 231 347 225 l 403 289 l 322 299 q 153 363 201 314 q 106 496 106 411 q 176 751 106 644 q 392 882 247 858 l 417 997 z "},"%":{"ha":1349,"x_min":85,"x_max":1264,"o":"m 931 924 l 557 -21 q 544 -40 550 -35 q 497 -56 529 -56 l 426 -56 l 800 889 q 813 908 807 903 q 860 924 828 924 l 931 924 m 782 146 q 796 268 782 190 q 826 394 810 346 q 874 481 843 442 q 1074 553 931 553 q 1222 515 1179 553 q 1264 396 1264 476 q 1250 272 1264 350 q 1219 146 1236 193 q 1172 60 1203 99 q 974 -12 1118 -12 q 825 26 868 -12 q 782 146 782 64 m 997 381 l 953 128 l 978 128 q 1049 161 1043 128 l 1093 413 l 1065 413 q 997 381 1003 413 m 85 461 q 99 583 85 506 q 129 709 113 661 q 176 796 146 757 q 376 868 233 868 q 524 830 482 868 q 567 711 567 792 q 553 587 567 665 q 522 461 539 508 q 475 375 506 414 q 276 303 421 303 q 128 341 171 303 q 85 461 85 379 m 300 696 l 256 443 l 281 443 q 351 476 346 443 l 396 728 l 368 728 q 300 696 306 728 z "},"&":{"ha":922,"x_min":49,"x_max":910,"o":"m 504 -160 l 504 29 q 240 -21 336 -21 q 49 165 49 -21 q 93 372 49 275 q 161 460 117 424 q 267 504 206 496 l 267 510 l 161 550 q 269 801 194 735 q 467 868 343 868 q 717 839 590 868 l 642 642 l 525 642 q 461 630 482 642 q 435 583 440 618 l 426 531 l 910 531 l 846 336 l 754 336 l 671 -139 l 504 -160 m 407 199 q 504 206 457 199 l 504 336 l 350 336 q 335 250 335 281 q 407 199 335 199 z "},"'":{"ha":364,"x_min":106,"x_max":385,"o":"m 385 874 l 369 785 q 238 417 368 779 l 106 417 l 106 738 q 119 865 106 788 q 175 903 125 903 l 342 903 q 385 874 385 903 z "},"(":{"ha":436,"x_min":0,"x_max":444,"o":"m 444 958 l 422 754 q 380 731 397 744 q 338 686 363 718 q 254 433 288 624 q 236 271 236 331 q 249 176 236 211 q 274 133 263 142 q 308 113 286 124 l 260 -92 q 0 258 0 -56 q 17 433 0 336 q 444 958 104 914 z "},")":{"ha":460,"x_min":-21,"x_max":424,"o":"m 114 740 l 164 944 q 424 596 424 908 q 406 419 424 525 q -21 -106 322 -60 l 1 99 q 34 114 22 107 q 67 142 46 121 q 104 194 89 164 q 164 396 142 272 q 186 578 186 519 q 174 672 186 638 q 148 719 161 707 q 114 740 135 731 z "},"*":{"ha":744,"x_min":46,"x_max":682,"o":"m 496 806 l 435 682 l 549 761 l 624 783 q 635 785 628 785 q 667 747 660 785 l 681 649 q 682 629 682 642 q 653 586 682 593 l 574 564 l 449 564 l 538 488 l 571 422 q 574 400 574 417 q 540 361 574 383 l 451 300 q 413 283 428 283 q 389 299 399 283 l 346 365 l 336 479 l 282 364 l 226 300 q 198 285 214 285 q 165 300 182 285 l 94 361 q 74 394 74 378 q 86 422 74 410 l 143 488 l 253 561 l 133 561 l 65 586 q 46 609 46 593 q 57 647 46 625 l 104 747 q 146 788 124 788 q 160 785 149 788 l 231 760 l 314 683 l 297 806 l 311 886 q 368 924 317 924 l 468 924 q 510 894 510 924 q 496 806 510 889 z "},"+":{"ha":833,"x_min":99,"x_max":735,"o":"m 99 333 l 133 533 l 339 533 l 378 749 l 567 749 l 528 533 l 735 533 l 700 333 l 493 333 l 454 117 l 265 117 l 304 333 l 99 333 z "},",":{"ha":385,"x_min":33,"x_max":344,"o":"m 51 138 q 101 253 65 219 q 213 286 136 286 q 317 265 290 286 q 344 196 344 244 q 267 -21 344 100 l 144 -210 l 33 -169 l 111 31 q 47 100 47 42 q 51 138 47 117 z "},"-":{"ha":486,"x_min":28,"x_max":460,"o":"m 28 278 l 54 428 q 84 476 61 465 q 154 486 107 486 l 460 486 l 433 336 q 403 288 426 299 q 332 278 379 278 l 28 278 z "},".":{"ha":371,"x_min":43,"x_max":342,"o":"m 49 138 q 98 253 63 219 q 210 286 133 286 q 315 265 288 286 q 342 206 342 244 q 336 138 342 167 q 287 24 322 56 q 174 -8 251 -8 q 70 12 97 -8 q 43 70 43 32 q 49 138 43 108 z "},"/":{"ha":699,"x_min":0,"x_max":699,"o":"m 699 924 l 158 -21 q 146 -40 151 -35 q 99 -56 131 -56 l 0 -56 l 540 889 q 553 908 547 903 q 600 924 568 924 l 699 924 z "},":":{"ha":421,"x_min":43,"x_max":415,"o":"m 49 138 q 98 253 63 219 q 210 286 133 286 q 315 265 288 286 q 342 206 342 244 q 336 138 342 167 q 287 24 322 56 q 174 -8 251 -8 q 70 12 97 -8 q 43 70 43 32 q 49 138 43 108 m 122 554 q 172 669 136 636 q 284 703 207 703 q 388 682 361 703 q 415 622 415 661 q 410 554 415 583 q 360 440 396 472 q 248 408 325 408 q 144 428 171 408 q 117 487 117 449 q 122 554 117 525 z "},";":{"ha":421,"x_min":32,"x_max":415,"o":"m 50 138 q 99 253 64 219 q 212 286 135 286 q 316 265 289 286 q 343 196 343 244 q 265 -21 343 100 l 143 -210 l 32 -169 l 110 31 q 46 100 46 42 q 50 138 46 117 m 122 554 q 172 669 136 636 q 284 703 207 703 q 388 682 361 703 q 415 622 415 661 q 410 554 415 583 q 360 440 396 472 q 248 408 325 408 q 144 428 171 408 q 117 487 117 449 q 122 554 117 525 z "},"<":{"ha":833,"x_min":133,"x_max":746,"o":"m 690 774 l 746 588 l 347 438 l 346 428 l 678 279 l 556 93 l 133 307 l 178 560 l 690 774 z "},"=":{"ha":833,"x_min":69,"x_max":764,"o":"m 69 168 l 104 368 l 706 368 l 671 168 l 69 168 m 128 499 l 163 699 l 764 699 l 729 499 l 128 499 z "},">":{"ha":833,"x_min":97,"x_max":710,"o":"m 153 93 l 97 279 l 496 429 l 497 439 l 165 588 l 288 774 l 710 560 l 665 307 l 153 93 z "},"?":{"ha":631,"x_min":56,"x_max":672,"o":"m 397 419 l 343 243 l 118 243 l 146 504 q 167 543 149 529 q 244 578 185 557 l 394 629 l 403 676 q 325 679 369 679 q 206 670 281 679 q 103 651 132 661 l 106 850 q 388 889 257 889 q 572 868 515 889 q 651 813 629 847 q 672 726 672 779 q 609 537 672 608 q 397 419 546 465 m 56 61 q 98 173 56 139 q 220 207 140 207 q 329 190 300 207 q 358 133 358 172 q 321 23 358 56 q 199 -10 283 -10 q 85 6 114 -10 q 56 61 56 22 z "},"@":{"ha":1204,"x_min":42,"x_max":1140,"o":"m 683 260 l 671 182 l 714 182 q 781 191 758 182 q 813 232 804 200 l 828 318 l 786 318 q 714 308 739 318 q 683 260 689 297 m 54 244 l 74 360 q 155 590 96 494 q 301 738 214 686 q 697 833 464 833 q 1035 781 931 833 q 1140 618 1140 729 q 1135 565 1140 601 l 1036 0 l 904 0 l 844 88 q 594 -12 747 -12 q 426 150 426 -12 q 527 404 426 322 q 804 486 628 486 l 857 486 l 875 588 q 722 601 810 601 q 599 599 633 601 q 522 586 565 597 q 450 556 478 575 q 365 403 383 507 l 317 129 q 311 69 311 103 q 326 8 311 36 q 363 -35 342 -21 q 422 -58 385 -50 q 568 -69 472 -69 l 817 -69 l 793 -200 q 543 -229 650 -229 q 367 -219 436 -229 q 235 -184 297 -208 q 132 -119 174 -160 q 42 122 42 -35 q 54 244 42 164 z "},"A":{"ha":846,"x_min":-69,"x_max":765,"o":"m 208 0 l -69 0 l 296 868 l 704 868 l 765 0 l 486 0 l 481 138 l 263 138 l 208 0 m 446 601 l 349 358 l 460 358 l 460 601 l 446 601 z "},"B":{"ha":803,"x_min":11,"x_max":782,"o":"m 11 0 l 164 868 l 592 868 q 737 833 692 868 q 782 726 782 799 q 735 553 782 621 q 622 468 689 485 l 621 460 q 746 294 746 436 q 678 85 746 169 q 486 0 610 0 l 11 0 m 439 346 l 335 346 l 310 204 l 413 204 q 465 232 447 204 q 483 303 483 260 q 439 346 483 346 m 478 678 l 394 678 l 371 549 l 453 549 q 517 639 517 549 q 478 678 517 678 z "},"C":{"ha":694,"x_min":35,"x_max":735,"o":"m 608 249 l 586 15 q 361 -21 497 -21 q 110 47 186 -21 q 35 257 35 115 q 54 433 35 317 q 198 781 96 672 q 521 889 300 889 q 638 878 572 889 q 735 853 704 868 l 657 640 q 503 660 575 660 q 401 646 432 660 q 364 590 371 632 l 300 226 q 403 215 350 215 q 608 249 515 215 z "},"D":{"ha":896,"x_min":11,"x_max":864,"o":"m 11 0 l 164 868 l 533 868 q 788 805 713 868 q 864 600 864 742 q 847 433 864 528 q 705 100 806 200 q 381 0 604 0 l 11 0 m 497 646 l 388 646 l 314 222 l 424 222 q 504 235 478 222 q 539 296 531 249 l 588 572 q 589 594 589 581 q 567 636 589 626 q 497 646 544 646 z "},"E":{"ha":736,"x_min":11,"x_max":744,"o":"m 596 328 l 332 328 l 314 222 l 638 222 l 599 0 l 11 0 l 164 868 l 744 868 l 672 646 l 388 646 l 368 529 l 632 529 l 596 328 z "},"F":{"ha":653,"x_min":11,"x_max":706,"o":"m 556 322 l 331 322 l 275 0 l 11 0 l 164 868 l 706 868 l 632 646 l 388 646 l 368 529 l 593 529 l 556 322 z "},"G":{"ha":814,"x_min":35,"x_max":800,"o":"m 483 256 l 490 293 l 424 293 l 461 506 l 779 506 l 697 42 q 357 -21 528 -21 q 110 47 186 -21 q 35 257 35 115 q 54 433 35 317 q 201 782 96 675 q 551 889 307 889 q 683 878 603 889 q 800 853 763 867 l 724 640 q 533 660 619 660 q 408 646 446 660 q 364 590 371 632 l 296 197 l 383 197 q 453 208 431 197 q 483 256 476 218 z "},"H":{"ha":903,"x_min":11,"x_max":890,"o":"m 474 0 l 526 307 l 328 307 l 275 0 l 11 0 l 164 868 l 428 868 l 374 561 l 572 561 l 626 868 l 890 868 l 738 0 l 474 0 z "},"I":{"ha":417,"x_min":0,"x_max":417,"o":"m 0 0 l 153 868 l 417 868 l 264 0 l 0 0 z "},"J":{"ha":508,"x_min":-32,"x_max":531,"o":"m -32 0 l -19 222 l 90 222 q 144 234 131 222 q 160 264 157 246 l 226 646 l 118 646 l 158 868 l 531 868 l 418 229 q 335 58 399 117 q 174 0 272 0 l -32 0 z "},"K":{"ha":799,"x_min":11,"x_max":861,"o":"m 350 351 l 351 378 l 340 378 l 275 0 l 11 0 l 164 868 l 428 868 l 365 514 l 376 514 q 401 581 388 558 l 576 868 l 861 868 l 589 442 l 715 0 l 431 0 l 354 311 q 350 351 350 325 z "},"L":{"ha":592,"x_min":11,"x_max":578,"o":"m 539 0 l 11 0 l 164 868 l 428 868 l 314 222 l 578 222 l 539 0 z "},"M":{"ha":1126,"x_min":-14,"x_max":1093,"o":"m 261 0 l -14 0 l 189 868 l 533 868 l 558 426 l 568 426 l 749 868 l 1093 868 l 990 0 l 714 0 l 772 421 l 763 421 l 589 0 l 388 0 l 358 421 l 351 421 l 261 0 z "},"N":{"ha":910,"x_min":11,"x_max":897,"o":"m 496 0 l 354 308 q 349 335 349 318 q 351 375 349 353 l 340 375 l 275 0 l 11 0 l 164 868 l 413 868 l 554 560 q 558 533 558 550 q 556 493 558 515 l 567 493 l 633 868 l 897 868 l 744 0 l 496 0 z "},"O":{"ha":875,"x_min":31,"x_max":843,"o":"m 357 578 l 293 217 l 403 217 q 483 230 457 217 q 518 290 510 243 l 582 651 l 471 651 q 392 638 418 651 q 357 578 365 625 m 517 889 q 768 820 693 889 q 843 608 843 751 q 798 309 843 465 q 655 66 753 153 q 369 -21 557 -21 q 106 48 181 -21 q 31 260 31 117 q 50 440 31 328 q 101 633 69 551 q 188 774 133 714 q 517 889 292 889 z "},"P":{"ha":796,"x_min":11,"x_max":817,"o":"m 483 210 l 311 210 l 275 0 l 11 0 l 164 868 l 581 868 q 817 649 817 868 q 788 460 817 544 q 723 327 758 376 q 626 244 688 278 q 483 210 564 210 m 388 646 l 350 432 l 411 432 q 483 442 458 432 q 514 490 507 453 q 532 603 532 593 q 511 638 532 629 q 449 646 490 646 l 388 646 z "},"Q":{"ha":874,"x_min":29,"x_max":842,"o":"m 29 260 q 49 440 29 328 q 100 633 68 551 q 186 774 132 714 q 515 889 290 889 q 766 819 690 889 q 842 610 842 749 q 801 344 842 471 q 704 149 761 217 l 790 90 l 693 -69 l 449 -21 l 458 32 l 340 0 q 101 67 172 0 q 29 260 29 135 m 292 217 l 401 217 q 482 230 456 217 q 517 290 508 243 l 581 651 l 469 651 q 390 638 417 651 q 356 578 364 625 l 292 217 z "},"R":{"ha":832,"x_min":11,"x_max":818,"o":"m 731 0 l 440 0 l 376 258 l 319 258 l 275 0 l 11 0 l 164 868 l 581 868 q 818 656 818 868 q 792 489 818 568 q 639 289 743 339 l 731 0 m 388 646 l 357 472 l 418 472 q 490 483 465 472 q 523 542 514 493 q 532 603 532 592 q 510 638 532 631 q 440 646 489 646 l 388 646 z "},"S":{"ha":799,"x_min":-14,"x_max":785,"o":"m -14 15 l 64 244 q 278 213 181 213 q 435 221 375 213 l 446 290 l 331 301 q 144 361 199 314 q 89 494 89 408 q 97 578 89 532 q 213 822 129 756 q 474 889 297 889 q 785 854 650 889 l 713 632 q 518 653 592 653 q 393 646 444 653 l 382 578 l 475 568 q 676 501 617 553 q 736 361 736 449 q 697 178 736 272 q 655 97 678 129 q 597 41 632 64 q 532 6 561 18 q 458 -11 503 -6 q 299 -21 393 -21 q -14 15 126 -21 z "},"T":{"ha":694,"x_min":61,"x_max":747,"o":"m 707 646 l 515 646 l 403 0 l 139 0 l 251 646 l 61 646 l 101 868 l 747 868 l 707 646 z "},"U":{"ha":843,"x_min":39,"x_max":853,"o":"m 408 868 l 293 217 l 388 217 q 457 230 436 217 q 486 290 478 243 l 589 868 l 853 868 l 767 381 q 719 190 746 263 q 643 68 692 118 q 523 -1 594 18 q 342 -21 451 -21 q 106 30 174 -21 q 39 204 39 81 q 58 381 39 272 l 144 868 l 408 868 z "},"V":{"ha":808,"x_min":83,"x_max":878,"o":"m 599 868 l 878 868 l 521 0 l 135 0 l 83 868 l 376 868 l 376 317 l 389 317 l 599 868 z "},"W":{"ha":1111,"x_min":83,"x_max":1167,"o":"m 890 868 l 1167 868 l 885 0 l 535 0 l 535 319 l 519 319 l 404 0 l 83 0 l 83 868 l 360 868 l 335 383 l 343 383 l 524 868 l 733 868 l 733 383 l 742 383 l 890 868 z "},"X":{"ha":794,"x_min":-69,"x_max":864,"o":"m 383 868 l 432 636 l 446 636 l 578 868 l 864 868 l 606 449 l 711 0 l 418 0 l 363 250 l 351 250 l 210 0 l -69 0 l 186 440 l 83 868 l 383 868 z "},"Y":{"ha":668,"x_min":42,"x_max":781,"o":"m 333 868 l 351 563 l 361 563 l 489 868 l 781 868 l 431 236 l 390 0 l 126 0 l 167 236 l 42 868 l 333 868 z "},"Z":{"ha":761,"x_min":-69,"x_max":789,"o":"m 642 0 l -69 0 l -39 174 l 379 638 l 376 646 l 100 646 l 115 868 l 789 868 l 758 694 l 343 231 l 344 222 l 681 222 l 642 0 z "},"[":{"ha":471,"x_min":-15,"x_max":478,"o":"m -12 40 l 122 799 q 219 914 139 885 q 478 944 300 944 l 454 740 q 343 731 450 740 l 233 108 l 342 99 l 293 -106 q 93 -92 156 -106 q 8 -52 31 -78 q -15 14 -15 -26 q -12 40 -15 21 z "},"\\":{"ha":699,"x_min":0,"x_max":699,"o":"m 540 -21 l 0 924 l 99 924 q 136 916 125 924 q 158 889 147 908 l 699 -56 l 600 -56 q 563 -48 574 -56 q 540 -21 551 -40 z "},"]":{"ha":510,"x_min":-7,"x_max":486,"o":"m 483 799 l 349 40 q 283 -60 338 -29 q 169 -97 226 -92 q -7 -106 83 -106 l 17 99 l 128 108 l 238 731 q 129 740 133 740 l 178 944 q 378 931 315 944 q 463 891 440 917 q 486 825 486 865 q 483 799 486 818 z "},"^":{"ha":833,"x_min":86,"x_max":733,"o":"m 733 364 l 544 303 l 457 614 l 449 614 l 251 303 l 86 364 l 368 815 l 608 815 l 733 364 z "},"_":{"ha":703,"x_min":-97,"x_max":657,"o":"m -97 -187 l -71 -37 q -41 10 -64 0 q 29 21 -18 21 l 657 21 l 631 -129 q 601 -177 624 -167 q 531 -187 578 -187 l -97 -187 z "},"`":{"ha":596,"x_min":54,"x_max":457,"o":"m 400 749 l 158 797 q 122 814 136 801 l 60 868 q 54 885 54 876 q 67 908 54 894 l 154 1011 q 176 1026 167 1026 q 194 1021 186 1026 l 457 828 l 400 749 z "},"a":{"ha":815,"x_min":38,"x_max":785,"o":"m 785 660 l 669 0 l 538 0 l 475 79 q 385 5 431 31 q 269 -21 340 -21 q 91 49 144 -21 q 38 229 38 118 q 144 572 38 428 q 439 715 250 715 q 785 660 599 715 m 353 454 l 306 182 l 346 182 q 393 184 376 182 q 426 198 410 186 q 446 232 442 210 l 496 513 l 454 513 q 383 502 407 513 q 353 454 360 492 z "},"b":{"ha":822,"x_min":28,"x_max":774,"o":"m 28 35 l 181 903 l 449 924 l 407 693 q 543 715 461 715 q 774 460 774 715 q 601 49 774 179 q 378 -21 510 -21 q 28 35 178 -21 m 367 461 l 318 182 l 360 182 q 430 192 407 182 q 460 240 453 203 l 508 513 l 468 513 q 392 498 411 513 q 367 461 372 483 z "},"c":{"ha":619,"x_min":49,"x_max":647,"o":"m 546 208 l 528 8 q 344 -21 451 -21 q 120 42 192 -21 q 49 232 49 106 q 151 577 49 439 q 453 715 254 715 q 647 686 589 715 l 582 497 q 474 513 513 513 q 360 439 372 513 l 317 190 q 413 182 353 182 q 546 208 474 182 z "},"d":{"ha":826,"x_min":49,"x_max":842,"o":"m 679 0 l 547 0 l 500 58 q 279 -21 428 -21 q 49 233 49 -21 q 76 422 49 333 q 139 565 104 511 q 238 656 174 618 q 385 694 301 694 l 538 694 l 574 903 l 842 924 l 679 0 m 363 454 l 315 182 l 356 182 q 424 191 400 182 q 456 232 447 200 l 506 513 l 464 513 q 393 502 417 513 q 363 454 369 492 z "},"e":{"ha":785,"x_min":47,"x_max":760,"o":"m 322 236 l 314 188 q 393 183 353 183 q 647 225 521 183 l 643 21 q 339 -21 489 -21 q 47 232 47 -21 q 222 647 47 518 q 450 715 317 715 q 692 678 624 715 q 760 554 760 642 q 738 411 760 467 q 682 322 717 356 q 589 269 647 289 q 322 236 489 239 m 361 454 l 351 397 l 406 397 q 475 408 451 397 q 506 456 499 418 l 517 513 l 463 513 q 392 502 415 513 q 361 454 368 492 z "},"f":{"ha":483,"x_min":43,"x_max":592,"o":"m 439 753 l 429 694 l 508 694 l 476 514 l 397 514 l 307 0 l 43 0 l 133 514 l 67 514 l 99 694 l 165 694 l 189 778 q 450 938 233 938 q 592 924 504 938 l 546 742 l 439 753 z "},"g":{"ha":817,"x_min":42,"x_max":786,"o":"m 786 660 l 671 0 q 588 -170 651 -111 q 424 -229 524 -229 l 53 -229 l 85 -49 l 336 -35 q 410 21 400 -32 l 413 42 q 278 21 358 21 q 96 88 150 21 q 42 257 42 154 q 151 580 42 444 q 447 715 261 715 q 786 660 632 715 m 356 454 l 314 224 l 354 224 q 401 226 385 224 q 434 240 418 228 q 454 274 450 251 l 499 513 l 457 513 q 386 502 410 513 q 356 454 363 492 z "},"h":{"ha":826,"x_min":26,"x_max":786,"o":"m 365 428 l 290 0 l 26 0 l 185 903 l 453 924 l 407 669 q 599 715 501 715 q 786 588 786 715 q 783 556 786 578 l 686 0 l 422 0 l 507 486 l 467 486 q 396 476 419 486 q 365 428 372 465 z "},"i":{"ha":417,"x_min":15,"x_max":444,"o":"m 15 0 l 131 660 l 401 694 l 279 0 l 15 0 m 142 788 q 184 903 142 868 q 307 938 226 938 q 416 920 388 938 q 444 863 444 903 q 408 748 444 781 q 285 715 371 715 q 171 731 200 715 q 142 788 142 747 z "},"j":{"ha":417,"x_min":-157,"x_max":444,"o":"m -157 -229 l -125 -49 l -53 -35 q -4 -17 -22 -29 q 18 21 14 -6 l 131 660 l 401 694 l 279 0 q 196 -170 260 -111 q 33 -229 132 -229 l -157 -229 m 142 788 q 184 903 142 868 q 307 938 226 938 q 416 920 388 938 q 444 863 444 903 q 408 748 444 781 q 285 715 371 715 q 171 731 200 715 q 142 788 142 747 z "},"k":{"ha":764,"x_min":26,"x_max":803,"o":"m 401 0 l 347 275 l 338 275 l 290 0 l 26 0 l 185 903 l 453 924 l 372 465 l 382 465 l 518 694 l 803 694 l 592 364 l 686 0 l 401 0 z "},"l":{"ha":429,"x_min":36,"x_max":443,"o":"m 443 924 l 315 199 q 378 189 356 190 l 331 -15 q 93 11 147 -15 q 53 47 69 24 q 36 89 36 69 q 39 131 36 108 l 175 903 l 443 924 z "},"m":{"ha":1197,"x_min":26,"x_max":1157,"o":"m 494 486 l 476 486 q 427 483 446 486 q 389 466 408 481 q 364 422 369 451 l 290 0 l 26 0 l 149 694 l 281 694 l 329 631 q 439 692 372 669 q 575 715 506 715 q 747 658 699 715 q 944 715 836 715 q 1157 585 1157 715 q 1154 556 1157 575 l 1057 0 l 793 0 l 878 486 l 860 486 q 749 431 758 486 l 674 0 l 410 0 l 494 486 z "},"n":{"ha":826,"x_min":26,"x_max":786,"o":"m 281 694 l 335 625 q 614 715 471 715 q 741 682 696 715 q 786 588 786 649 q 783 556 786 578 l 686 0 l 422 0 l 507 486 l 467 486 q 397 476 422 486 q 367 433 372 465 l 290 0 l 26 0 l 149 694 l 281 694 z "},"o":{"ha":819,"x_min":49,"x_max":771,"o":"m 49 232 q 155 578 49 440 q 474 715 261 715 q 699 652 628 715 q 771 458 771 589 q 728 222 771 328 q 588 48 686 117 q 340 -21 489 -21 q 49 232 49 -21 m 363 454 l 315 182 l 356 182 q 426 192 403 182 q 457 240 450 203 l 506 513 l 464 513 q 393 502 417 513 q 363 454 369 492 z "},"p":{"ha":826,"x_min":-14,"x_max":779,"o":"m 150 694 l 282 694 l 319 625 q 549 715 390 715 q 779 460 779 715 q 751 271 779 360 q 689 129 724 182 q 590 38 654 76 q 444 0 526 0 l 292 0 l 254 -208 l -14 -229 l 150 694 m 372 461 l 324 182 l 365 182 q 435 192 413 182 q 465 240 458 203 l 514 513 l 474 513 q 397 498 417 513 q 372 461 378 483 z "},"q":{"ha":818,"x_min":40,"x_max":793,"o":"m 661 694 l 793 694 l 633 -210 l 365 -229 l 407 0 q 271 -21 351 -21 q 94 51 147 -21 q 40 222 40 122 q 62 403 40 322 q 127 557 83 485 q 248 672 171 629 q 433 715 325 715 q 617 656 540 715 l 661 694 m 354 454 l 307 182 l 347 182 q 418 192 394 182 q 449 240 442 203 l 497 513 l 456 513 q 385 502 408 513 q 354 454 361 492 z "},"r":{"ha":521,"x_min":15,"x_max":540,"o":"m 138 694 l 269 694 l 329 617 q 540 715 419 692 l 511 453 q 425 436 479 451 q 349 397 371 421 l 279 0 l 15 0 l 138 694 z "},"s":{"ha":731,"x_min":-6,"x_max":710,"o":"m 78 410 q 165 637 78 558 q 422 715 251 715 q 710 672 592 715 l 646 483 q 446 514 550 514 q 354 508 413 514 l 346 464 q 599 417 525 464 q 672 283 672 371 q 324 -21 672 -21 q -6 19 117 -21 l 61 217 q 294 181 168 181 q 404 186 356 181 l 413 231 q 153 274 229 231 q 78 410 78 318 z "},"t":{"ha":506,"x_min":64,"x_max":522,"o":"m 69 515 l 101 694 l 167 694 l 186 806 l 463 875 l 431 694 l 522 694 l 490 515 l 399 515 l 343 199 q 419 189 378 192 l 372 -15 q 122 11 178 -15 q 64 101 64 40 q 67 131 64 108 l 135 515 l 69 515 z "},"u":{"ha":819,"x_min":42,"x_max":794,"o":"m 399 694 l 308 182 l 349 182 q 419 192 396 182 q 450 240 443 203 l 531 694 l 794 694 l 672 0 l 540 0 l 478 79 q 233 -21 381 -21 q 88 15 135 -21 q 42 135 42 51 q 49 208 42 174 l 135 694 l 399 694 z "},"v":{"ha":722,"x_min":79,"x_max":765,"o":"m 122 0 l 79 694 l 335 694 l 335 243 l 349 243 l 501 694 l 765 694 l 478 0 l 122 0 z "},"w":{"ha":1111,"x_min":110,"x_max":1129,"o":"m 110 0 l 110 694 l 368 694 l 349 282 l 364 282 l 521 694 l 718 694 l 718 282 l 733 282 l 869 694 l 1129 694 l 875 0 l 550 0 l 550 299 l 539 299 l 431 0 l 110 0 z "},"x":{"ha":750,"x_min":-42,"x_max":786,"o":"m 361 694 l 406 522 l 413 522 l 513 694 l 786 694 l 558 339 l 671 0 l 396 0 l 346 188 l 340 188 l 233 0 l -42 0 l 192 358 l 88 694 l 361 694 z "},"y":{"ha":722,"x_min":-71,"x_max":765,"o":"m 117 72 l 79 694 l 335 694 l 335 243 l 349 243 l 501 694 l 765 694 l 478 0 q 356 -183 421 -137 q 185 -229 292 -229 l -71 -229 l -40 -49 l 88 -24 q 256 64 228 4 l 256 72 l 117 72 z "},"z":{"ha":717,"x_min":-28,"x_max":719,"o":"m -4 139 l 314 478 l 311 486 l 103 486 l 121 694 l 719 694 l 694 556 l 381 217 l 383 208 l 642 208 l 606 0 l -28 0 l -4 139 z "},"{":{"ha":471,"x_min":-25,"x_max":478,"o":"m 233 108 l 342 99 l 293 -106 q 93 -92 156 -106 q 8 -52 31 -78 q -15 14 -15 -26 q 58 318 -15 25 l -25 340 l 3 496 l 93 518 l 122 799 q 243 925 133 899 q 348 941 300 938 q 478 944 396 944 l 454 740 q 343 731 450 740 l 326 568 q 297 478 319 508 q 235 426 274 447 l 232 410 q 283 303 283 371 q 274 243 283 279 l 233 108 z "},"|":{"ha":583,"x_min":93,"x_max":468,"o":"m 93 -250 l 310 978 l 468 978 l 251 -250 l 93 -250 z "},"}":{"ha":497,"x_min":-21,"x_max":482,"o":"m 224 731 l 115 740 l 164 944 q 364 931 301 944 q 449 891 426 917 q 472 825 472 865 q 399 521 472 814 l 482 499 l 454 343 l 364 321 l 335 40 q 214 -86 324 -60 q 109 -102 157 -99 q -21 -106 61 -106 l 3 99 q 114 108 7 99 l 131 271 q 160 361 138 331 q 222 413 183 392 l 225 429 q 174 536 174 468 q 183 596 174 560 l 224 731 z "},"~":{"ha":833,"x_min":32,"x_max":803,"o":"m 532 282 q 438 305 483 282 q 356 350 392 328 q 294 372 321 372 q 150 281 242 372 l 32 407 q 226 572 149 542 q 306 588 263 588 q 424 540 349 588 q 540 492 500 492 q 683 583 604 492 l 803 458 q 532 282 678 282 z "},"¡":{"ha":458,"x_min":-29,"x_max":406,"o":"m 118 469 l 342 469 l 276 -125 q 219 -162 271 -162 l 14 -162 q -29 -135 -29 -162 q -28 -125 -29 -128 l 118 469 m 406 644 q 363 532 406 565 q 240 499 319 499 q 132 516 161 499 q 103 572 103 533 q 140 683 103 650 q 262 715 176 715 q 376 699 347 715 q 406 644 406 683 z "},"¢":{"ha":638,"x_min":35,"x_max":608,"o":"m 304 700 l 332 833 l 501 833 l 475 713 q 608 689 549 706 l 535 488 l 443 488 q 401 484 418 488 q 367 465 383 481 q 343 419 350 449 l 308 263 q 392 258 339 258 q 513 279 446 258 l 485 78 q 335 49 414 50 l 304 -89 l 135 -89 l 167 61 q 35 239 35 93 q 60 406 35 324 q 113 542 85 489 q 190 639 140 594 q 304 700 240 683 z "},"£":{"ha":814,"x_min":-6,"x_max":786,"o":"m 613 364 l 413 364 l 375 222 l 663 222 l 663 0 l -6 0 l 18 139 l 92 188 l 143 364 l 58 364 l 85 513 l 185 513 l 214 615 q 544 890 292 890 q 786 864 678 890 l 711 663 l 582 663 q 511 650 538 663 q 474 594 485 638 l 451 513 l 651 513 l 613 364 z "},"¥":{"ha":778,"x_min":19,"x_max":819,"o":"m 386 868 l 401 543 l 410 543 l 542 868 l 819 868 l 631 513 l 718 513 l 692 364 l 551 364 l 514 294 l 679 294 l 653 146 l 468 146 l 443 0 l 179 0 l 204 146 l 19 146 l 46 294 l 210 294 l 199 364 l 58 364 l 85 513 l 172 513 l 107 868 l 386 868 z "},"¦":{"ha":583,"x_min":94,"x_max":469,"o":"m 228 511 l 311 978 l 469 978 l 386 511 l 228 511 m 94 -250 l 176 217 l 335 217 l 253 -250 l 94 -250 z "},"§":{"ha":817,"x_min":-11,"x_max":769,"o":"m 506 282 q 517 367 517 351 q 460 403 517 403 l 308 403 q 297 317 297 333 q 354 282 297 282 l 506 282 m -11 -126 l 49 43 l 403 43 l 411 90 q 151 132 226 90 q 75 264 75 174 q 94 380 75 321 q 139 475 114 439 q 125 562 125 501 q 147 681 125 622 q 201 773 168 739 q 285 826 233 807 q 510 858 369 858 q 769 824 650 858 l 710 647 l 411 647 l 403 600 q 654 556 582 600 q 726 425 726 511 q 707 309 726 367 q 661 215 688 251 q 676 121 676 183 q 652 0 676 58 q 591 -90 628 -58 q 499 -139 554 -121 q 267 -168 414 -168 q -11 -126 119 -168 z "},"¨":{"ha":597,"x_min":47,"x_max":551,"o":"m 336 833 q 365 949 336 915 q 452 983 393 983 q 531 968 511 983 q 551 917 551 953 q 523 801 551 835 q 435 767 494 767 q 356 782 376 767 q 336 833 336 797 m 47 833 q 76 949 47 915 q 163 983 104 983 q 242 968 222 983 q 263 917 263 953 q 233 801 263 835 q 146 767 204 767 q 67 782 88 767 q 47 833 47 797 z "},"©":{"ha":782,"x_min":38,"x_max":724,"o":"m 339 506 l 381 501 q 483 521 433 501 l 471 400 q 349 381 422 381 q 239 413 275 381 q 203 515 203 446 q 211 599 203 550 q 281 765 232 714 q 436 817 329 817 q 542 797 506 817 l 503 689 q 431 699 465 699 q 383 693 396 699 q 368 672 371 688 l 339 506 m 38 490 q 128 808 38 683 q 256 910 175 874 q 444 947 336 947 q 656 888 589 947 q 724 722 724 829 q 702 534 724 614 q 635 389 681 454 q 509 286 589 324 q 321 249 429 249 q 106 308 174 249 q 38 490 38 368 m 433 883 q 183 785 261 883 q 104 494 104 688 q 158 353 104 394 q 332 313 211 313 q 581 411 504 313 q 658 704 658 510 q 605 843 658 803 q 433 883 551 883 z "},"ª":{"ha":636,"x_min":40,"x_max":674,"o":"m 40 265 l 60 376 q 79 410 64 404 q 131 417 94 417 l 579 417 l 561 308 q 540 273 557 281 q 489 265 524 265 l 40 265 m 674 1025 l 582 494 l 475 494 l 425 558 q 260 478 353 478 q 74 679 74 478 q 159 954 74 839 q 396 1069 244 1069 q 674 1025 525 1069 m 326 860 l 289 640 l 321 640 q 383 651 367 640 q 401 681 399 663 l 442 907 l 408 907 q 351 898 371 907 q 326 860 332 889 z "},"«":{"ha":799,"x_min":26,"x_max":772,"o":"m 50 417 l 349 660 l 443 589 l 269 347 l 358 106 l 239 35 l 26 278 l 50 417 m 379 417 l 679 660 l 772 589 l 599 347 l 688 106 l 569 35 l 349 278 l 379 417 z "},"¬":{"ha":833,"x_min":100,"x_max":736,"o":"m 100 333 l 135 533 l 736 533 l 667 139 l 489 139 l 524 333 l 100 333 z "},"®":{"ha":782,"x_min":38,"x_max":724,"o":"m 38 490 q 128 808 38 683 q 256 910 175 874 q 444 947 336 947 q 656 888 589 947 q 724 722 724 829 q 702 534 724 614 q 635 389 681 454 q 509 286 589 324 q 321 249 429 249 q 106 308 174 249 q 38 490 38 368 m 433 883 q 183 785 261 883 q 104 494 104 688 q 158 353 104 394 q 332 313 211 313 q 581 411 504 313 q 658 704 658 510 q 605 843 658 803 q 433 883 551 883 m 535 390 l 386 390 l 356 511 l 340 511 l 319 390 l 185 390 l 258 807 l 457 807 q 574 704 574 807 q 554 603 574 654 q 490 528 535 551 l 535 390 m 372 692 l 360 622 l 382 622 q 413 626 404 622 q 425 651 421 629 q 429 678 429 672 q 394 692 429 692 l 372 692 z "},"¯":{"ha":554,"x_min":74,"x_max":481,"o":"m 460 789 l 135 789 q 87 799 100 789 q 74 830 74 808 q 79 878 74 851 l 94 965 l 421 965 q 468 957 456 965 q 481 933 481 949 q 475 878 481 917 l 460 789 z "},"°":{"ha":565,"x_min":46,"x_max":518,"o":"m 46 663 q 116 889 46 800 q 326 978 186 978 q 472 937 426 978 q 518 813 518 896 q 449 585 518 675 q 240 496 379 496 q 92 537 139 496 q 46 663 46 578 m 207 781 l 182 640 l 265 640 q 309 642 294 640 q 338 657 324 644 q 357 694 353 669 l 381 833 l 306 833 q 256 831 272 833 q 226 817 240 829 q 207 781 211 806 z "},"±":{"ha":833,"x_min":43,"x_max":763,"o":"m 126 474 l 161 674 l 367 674 l 406 889 l 594 889 l 556 674 l 763 674 l 728 474 l 521 474 l 482 257 l 293 257 l 332 474 l 126 474 m 43 0 l 78 200 l 679 200 l 644 0 l 43 0 z "},"²":{"ha":556,"x_min":17,"x_max":521,"o":"m 117 856 l 118 1006 q 303 1029 213 1029 q 431 1022 394 1029 q 494 987 467 1015 q 521 906 521 958 q 515 851 521 893 q 454 736 501 769 q 250 650 407 703 l 244 622 l 467 622 l 442 476 l 17 476 l 36 590 q 67 676 49 654 q 94 710 86 699 q 130 735 103 721 q 167 756 157 750 q 215 778 176 761 q 267 800 254 794 l 322 825 l 331 874 q 256 876 301 876 q 117 856 210 876 z "},"³":{"ha":556,"x_min":18,"x_max":508,"o":"m 315 811 l 326 872 q 242 876 296 876 q 117 856 189 876 l 118 1006 q 314 1029 213 1029 q 462 1008 415 1029 q 508 924 508 988 q 428 764 508 817 q 476 675 476 735 q 471 628 476 664 q 446 558 465 592 q 403 507 426 525 q 344 479 381 489 q 198 464 289 464 q 18 488 107 464 l 69 639 q 207 617 156 617 q 282 619 258 617 l 293 683 l 160 699 l 176 794 l 315 811 z "},"´":{"ha":596,"x_min":97,"x_max":500,"o":"m 396 797 l 154 749 l 97 828 l 360 1021 q 378 1026 368 1026 q 400 1011 388 1026 l 488 908 q 500 885 500 894 q 497 872 500 876 q 432 814 493 867 q 396 797 418 801 z "},"µ":{"ha":819,"x_min":-28,"x_max":799,"o":"m 400 694 l 310 182 l 350 182 q 421 192 397 182 q 451 240 444 203 l 532 694 l 799 715 l 674 0 l 542 0 l 494 60 q 322 0 435 0 l 228 0 l 143 -229 l -28 -229 l 136 694 l 400 694 z "},"¶":{"ha":839,"x_min":-7,"x_max":840,"o":"m 325 0 l 182 -35 l 240 303 q 75 499 75 328 q 150 753 75 650 q 258 838 189 807 q 419 868 326 868 l 840 868 l 800 646 l 733 646 l 619 0 q 382 -229 579 -229 l -7 -229 l 6 -158 l 286 -76 q 358 -17 351 -58 l 476 646 l 438 646 l 325 0 z "},"·":{"ha":385,"x_min":43,"x_max":342,"o":"m 49 346 q 98 461 63 428 q 210 494 133 494 q 315 474 288 494 q 342 414 342 453 q 336 346 342 375 q 287 232 322 264 q 174 200 251 200 q 70 220 97 200 q 43 278 43 240 q 49 346 43 317 z "},"¸":{"ha":651,"x_min":151,"x_max":453,"o":"m 282 -36 l 293 29 l 374 29 q 453 -89 453 -4 q 408 -187 453 -146 q 290 -229 364 -229 q 151 -203 215 -229 l 188 -81 l 231 -81 q 267 -73 258 -81 q 282 -36 276 -65 z "},"¹":{"ha":556,"x_min":51,"x_max":464,"o":"m 439 476 l 51 476 l 76 622 l 189 622 l 225 828 l 97 821 l 125 972 l 306 1017 l 443 1017 l 374 622 l 464 622 l 439 476 z "},"º":{"ha":636,"x_min":40,"x_max":667,"o":"m 86 681 q 172 959 86 849 q 428 1069 257 1069 q 609 1019 551 1069 q 667 865 667 968 q 581 588 667 699 q 324 478 494 478 q 143 528 200 478 q 86 681 86 579 m 339 860 l 300 640 l 333 640 q 390 649 371 640 q 414 688 410 658 l 453 907 l 419 907 q 363 898 382 907 q 339 860 343 889 m 40 265 l 60 376 q 79 410 64 404 q 131 417 94 417 l 579 417 l 561 308 q 540 273 557 281 q 489 265 524 265 l 40 265 z "},"»":{"ha":799,"x_min":-6,"x_max":740,"o":"m 528 660 l 740 417 l 717 278 l 418 35 l 324 106 l 499 347 l 408 589 l 528 660 m 199 660 l 411 417 l 388 278 l 89 35 l -6 106 l 169 347 l 79 589 l 199 660 z "},"¼":{"ha":1349,"x_min":88,"x_max":1282,"o":"m 957 924 l 583 -21 q 571 -40 576 -35 q 524 -56 556 -56 l 453 -56 l 826 889 q 839 908 833 903 q 886 924 854 924 l 957 924 m 1011 0 l 1025 83 l 782 83 l 803 200 l 986 540 l 1282 540 l 1226 222 l 1278 222 l 1253 83 l 1201 83 l 1188 0 l 1011 0 m 1050 222 l 1083 410 l 1060 410 l 967 222 l 1050 222 m 475 315 l 88 315 l 113 461 l 225 461 l 261 667 l 133 660 l 161 811 l 342 856 l 479 856 l 410 461 l 500 461 l 475 315 z "},"½":{"ha":1349,"x_min":60,"x_max":1294,"o":"m 915 924 l 542 -21 q 529 -40 535 -35 q 482 -56 514 -56 l 411 -56 l 785 889 q 797 908 792 903 q 844 924 813 924 l 915 924 m 890 379 l 892 529 q 1077 553 986 553 q 1204 546 1168 553 q 1267 510 1240 539 q 1294 429 1294 482 q 1289 375 1294 417 q 1228 260 1275 293 q 1024 174 1181 226 l 1018 146 l 1240 146 l 1215 0 l 790 0 l 810 114 q 841 200 822 178 q 868 233 860 222 q 903 259 876 244 q 940 279 931 274 q 989 301 950 285 q 1040 324 1028 318 l 1096 349 l 1104 397 q 1029 400 1075 400 q 890 379 983 400 m 447 315 l 60 315 l 85 461 l 197 461 l 233 667 l 106 660 l 133 811 l 314 856 l 451 856 l 382 461 l 472 461 l 447 315 z "},"¾":{"ha":1349,"x_min":40,"x_max":1282,"o":"m 931 924 l 557 -21 q 544 -40 550 -35 q 497 -56 529 -56 l 426 -56 l 800 889 q 813 908 807 903 q 860 924 828 924 l 931 924 m 1011 0 l 1025 83 l 782 83 l 803 200 l 986 540 l 1282 540 l 1226 222 l 1278 222 l 1253 83 l 1201 83 l 1188 0 l 1011 0 m 1050 222 l 1083 410 l 1060 410 l 967 222 l 1050 222 m 338 650 l 349 711 q 265 715 318 715 q 139 694 211 715 l 140 844 q 336 868 235 868 q 484 847 438 868 q 531 763 531 826 q 450 603 531 656 q 499 514 499 574 q 493 467 499 503 q 468 397 488 431 q 426 346 449 364 q 367 318 403 328 q 220 303 311 303 q 40 326 129 303 l 92 478 q 229 456 178 456 q 304 458 281 456 l 315 522 l 182 538 l 199 633 l 338 650 z "},"¿":{"ha":603,"x_min":-56,"x_max":561,"o":"m 219 286 l 274 463 l 499 463 l 471 201 q 450 163 468 176 q 372 128 432 149 l 222 76 l 214 29 q 292 26 247 26 q 410 35 336 26 q 514 54 485 44 l 511 -144 q 229 -183 360 -183 q 44 -162 101 -183 q -34 -108 -12 -142 q -56 -21 -56 -74 q 8 169 -56 97 q 219 286 71 240 m 561 644 q 519 533 561 567 q 397 499 476 499 q 288 516 317 499 q 258 572 258 533 q 296 683 258 650 q 418 715 333 715 q 532 699 503 715 q 561 644 561 683 z "},"À":{"ha":846,"x_min":-69,"x_max":765,"o":"m 208 0 l -69 0 l 296 868 l 704 868 l 765 0 l 486 0 l 481 138 l 263 138 l 208 0 m 446 601 l 349 358 l 460 358 l 460 601 l 446 601 m 676 922 l 435 971 q 399 988 413 975 l 336 1042 q 331 1058 331 1050 q 343 1082 331 1067 l 431 1185 q 453 1200 443 1200 q 471 1194 463 1200 l 733 1001 l 676 922 z "},"Á":{"ha":846,"x_min":-69,"x_max":765,"o":"m 208 0 l -69 0 l 296 868 l 704 868 l 765 0 l 486 0 l 481 138 l 263 138 l 208 0 m 446 601 l 349 358 l 460 358 l 460 601 l 446 601 m 626 950 l 385 901 l 328 981 l 590 1174 q 608 1179 599 1179 q 631 1164 618 1179 l 718 1061 q 731 1038 731 1047 q 727 1024 731 1029 q 663 967 724 1019 q 626 950 649 954 z "},"Â":{"ha":846,"x_min":-69,"x_max":765,"o":"m 208 0 l -69 0 l 296 868 l 704 868 l 765 0 l 486 0 l 481 138 l 263 138 l 208 0 m 446 601 l 349 358 l 460 358 l 460 601 l 446 601 m 540 1200 l 603 1200 q 621 1188 614 1200 l 736 986 l 644 918 l 536 1006 l 399 918 l 332 986 l 515 1188 q 540 1200 525 1200 z "},"Ã":{"ha":846,"x_min":-69,"x_max":786,"o":"m 208 0 l -69 0 l 296 868 l 704 868 l 765 0 l 486 0 l 481 138 l 263 138 l 208 0 m 446 601 l 349 358 l 460 358 l 460 601 l 446 601 m 621 1111 l 740 1167 l 786 1054 q 587 934 607 942 q 549 926 567 926 q 521 929 532 926 q 499 940 510 932 q 481 953 488 947 q 440 989 469 960 l 322 933 l 275 1046 q 474 1166 454 1158 q 512 1174 494 1174 q 540 1171 529 1174 q 563 1160 551 1168 q 581 1147 574 1153 q 621 1111 592 1140 z "},"Ä":{"ha":846,"x_min":-69,"x_max":783,"o":"m 208 0 l -69 0 l 296 868 l 704 868 l 765 0 l 486 0 l 481 138 l 263 138 l 208 0 m 446 601 l 349 358 l 460 358 l 460 601 l 446 601 m 568 1006 q 597 1122 568 1088 q 684 1156 625 1156 q 763 1140 743 1156 q 783 1089 783 1125 q 755 973 783 1007 q 667 939 726 939 q 588 954 608 939 q 568 1006 568 969 m 279 1006 q 308 1122 279 1088 q 395 1156 336 1156 q 474 1140 454 1156 q 494 1089 494 1125 q 465 973 494 1007 q 378 939 436 939 q 299 954 319 939 q 279 1006 279 969 z "},"Å":{"ha":846,"x_min":-69,"x_max":765,"o":"m 208 0 l -69 0 l 296 868 l 704 868 l 765 0 l 486 0 l 481 138 l 263 138 l 208 0 m 446 601 l 349 358 l 460 358 l 460 601 l 446 601 m 482 1094 l 465 1000 l 521 1000 q 569 1010 558 1000 q 582 1036 579 1019 l 599 1129 l 547 1129 q 496 1119 507 1129 q 482 1094 485 1110 m 561 1225 q 690 1114 690 1225 q 642 958 690 1011 q 504 904 593 904 q 375 1015 375 904 q 424 1172 375 1118 q 561 1225 472 1225 z "},"Æ":{"ha":1039,"x_min":-97,"x_max":1047,"o":"m 181 0 l -97 0 l 268 868 l 1047 868 l 974 646 l 690 646 l 700 529 l 935 529 l 899 328 l 714 328 l 721 222 l 1000 222 l 961 0 l 458 0 l 453 138 l 235 138 l 181 0 m 418 601 l 321 358 l 432 358 l 432 601 l 418 601 z "},"Ç":{"ha":694,"x_min":35,"x_max":735,"o":"m 279 -36 l 282 -17 q 92 64 150 -4 q 35 257 35 132 q 54 433 35 317 q 198 781 96 672 q 521 889 300 889 q 638 878 572 889 q 735 853 704 868 l 657 640 q 503 660 575 660 q 401 646 432 660 q 364 590 371 632 l 300 226 q 403 215 350 215 q 608 249 515 215 l 586 15 q 429 -18 518 -12 q 450 -98 450 -50 q 406 -187 450 -146 q 287 -229 361 -229 q 149 -203 213 -229 l 185 -81 l 228 -81 q 265 -73 256 -81 q 279 -36 274 -65 z "},"È":{"ha":736,"x_min":11,"x_max":744,"o":"m 596 328 l 332 328 l 314 222 l 638 222 l 599 0 l 11 0 l 164 868 l 744 868 l 672 646 l 388 646 l 368 529 l 632 529 l 596 328 m 617 922 l 375 971 q 339 988 353 975 l 276 1042 q 271 1058 271 1050 q 283 1082 271 1067 l 371 1185 q 393 1200 383 1200 q 411 1194 403 1200 l 674 1001 l 617 922 z "},"É":{"ha":736,"x_min":11,"x_max":744,"o":"m 596 328 l 332 328 l 314 222 l 638 222 l 599 0 l 11 0 l 164 868 l 744 868 l 672 646 l 388 646 l 368 529 l 632 529 l 596 328 m 565 950 l 324 901 l 267 981 l 529 1174 q 547 1179 538 1179 q 569 1164 557 1179 l 657 1061 q 669 1038 669 1047 q 666 1024 669 1029 q 601 967 663 1019 q 565 950 588 954 z "},"Ê":{"ha":736,"x_min":11,"x_max":744,"o":"m 596 328 l 332 328 l 314 222 l 638 222 l 599 0 l 11 0 l 164 868 l 744 868 l 672 646 l 388 646 l 368 529 l 632 529 l 596 328 m 539 1200 l 601 1200 q 619 1188 613 1200 l 735 986 l 643 918 l 535 1006 l 397 918 l 331 986 l 514 1188 q 539 1200 525 1200 z "},"Ë":{"ha":736,"x_min":11,"x_max":744,"o":"m 596 328 l 332 328 l 314 222 l 638 222 l 599 0 l 11 0 l 164 868 l 744 868 l 672 646 l 388 646 l 368 529 l 632 529 l 596 328 m 510 1006 q 538 1122 510 1088 q 626 1156 567 1156 q 705 1140 685 1156 q 725 1089 725 1125 q 697 973 725 1007 q 609 939 668 939 q 530 954 550 939 q 510 1006 510 969 m 221 1006 q 249 1122 221 1088 q 337 1156 278 1156 q 416 1140 396 1156 q 436 1089 436 1125 q 407 973 436 1007 q 319 939 378 939 q 241 954 261 939 q 221 1006 221 969 z "},"Ì":{"ha":417,"x_min":0,"x_max":519,"o":"m 0 0 l 153 868 l 417 868 l 264 0 l 0 0 m 463 922 l 221 971 q 185 988 199 975 l 122 1042 q 117 1058 117 1050 q 129 1082 117 1067 l 217 1185 q 239 1200 229 1200 q 257 1194 249 1200 l 519 1001 l 463 922 z "},"Í":{"ha":417,"x_min":0,"x_max":515,"o":"m 0 0 l 153 868 l 417 868 l 264 0 l 0 0 m 411 950 l 169 901 l 113 981 l 375 1174 q 393 1179 383 1179 q 415 1164 403 1179 l 503 1061 q 515 1038 515 1047 q 512 1024 515 1029 q 447 967 508 1019 q 411 950 433 954 z "},"Î":{"ha":417,"x_min":0,"x_max":521,"o":"m 0 0 l 153 868 l 417 868 l 264 0 l 0 0 m 325 1200 l 388 1200 q 406 1188 399 1200 l 521 986 l 429 918 l 321 1006 l 183 918 l 117 986 l 300 1188 q 325 1200 311 1200 z "},"Ï":{"ha":417,"x_min":0,"x_max":568,"o":"m 0 0 l 153 868 l 417 868 l 264 0 l 0 0 m 353 1006 q 381 1122 353 1088 q 469 1156 410 1156 q 548 1140 528 1156 q 568 1089 568 1125 q 540 973 568 1007 q 452 939 511 939 q 373 954 393 939 q 353 1006 353 969 m 64 1006 q 92 1122 64 1088 q 180 1156 121 1156 q 259 1140 239 1156 q 279 1089 279 1125 q 250 973 279 1007 q 163 939 221 939 q 84 954 104 939 q 64 1006 64 969 z "},"Ð":{"ha":896,"x_min":-21,"x_max":864,"o":"m 11 0 l 71 338 l -21 338 l 4 474 q 27 514 10 504 q 78 525 44 524 l 103 525 l 164 868 l 533 868 q 788 805 713 868 q 864 600 864 742 q 847 433 864 528 q 705 100 806 200 q 381 0 604 0 l 11 0 m 497 646 l 388 646 l 367 525 l 475 525 l 451 390 q 424 347 446 357 q 361 338 403 338 l 333 338 l 314 222 l 424 222 q 504 235 478 222 q 539 296 531 249 l 588 572 q 589 594 589 581 q 567 636 589 626 q 497 646 544 646 z "},"Ñ":{"ha":910,"x_min":11,"x_max":897,"o":"m 496 0 l 354 308 q 349 335 349 318 q 351 375 349 353 l 340 375 l 275 0 l 11 0 l 164 868 l 413 868 l 554 560 q 558 533 558 550 q 556 493 558 515 l 567 493 l 633 868 l 897 868 l 744 0 l 496 0 m 647 1111 l 767 1167 l 813 1054 q 613 934 633 942 q 576 926 593 926 q 547 929 558 926 q 525 940 536 932 q 507 953 514 947 q 467 989 496 960 l 349 933 l 301 1046 q 501 1166 481 1158 q 538 1174 521 1174 q 567 1171 556 1174 q 589 1160 578 1168 q 607 1147 600 1153 q 647 1111 618 1140 z "},"Ò":{"ha":875,"x_min":31,"x_max":843,"o":"m 357 578 l 293 217 l 403 217 q 483 230 457 217 q 518 290 510 243 l 582 651 l 471 651 q 392 638 418 651 q 357 578 365 625 m 517 889 q 768 820 693 889 q 843 608 843 751 q 798 309 843 465 q 655 66 753 153 q 369 -21 557 -21 q 106 48 181 -21 q 31 260 31 117 q 50 440 31 328 q 101 633 69 551 q 188 774 133 714 q 517 889 292 889 m 690 922 l 449 971 q 413 988 426 975 l 350 1042 q 344 1058 344 1050 q 357 1082 344 1067 l 444 1185 q 467 1200 457 1200 q 485 1194 476 1200 l 747 1001 l 690 922 z "},"Ó":{"ha":875,"x_min":31,"x_max":843,"o":"m 357 578 l 293 217 l 403 217 q 483 230 457 217 q 518 290 510 243 l 582 651 l 471 651 q 392 638 418 651 q 357 578 365 625 m 517 889 q 768 820 693 889 q 843 608 843 751 q 798 309 843 465 q 655 66 753 153 q 369 -21 557 -21 q 106 48 181 -21 q 31 260 31 117 q 50 440 31 328 q 101 633 69 551 q 188 774 133 714 q 517 889 292 889 m 640 950 l 399 901 l 342 981 l 604 1174 q 622 1179 613 1179 q 644 1164 632 1179 l 732 1061 q 744 1038 744 1047 q 741 1024 744 1029 q 676 967 738 1019 q 640 950 663 954 z "},"Ô":{"ha":875,"x_min":31,"x_max":843,"o":"m 357 578 l 293 217 l 403 217 q 483 230 457 217 q 518 290 510 243 l 582 651 l 471 651 q 392 638 418 651 q 357 578 365 625 m 517 889 q 768 820 693 889 q 843 608 843 751 q 798 309 843 465 q 655 66 753 153 q 369 -21 557 -21 q 106 48 181 -21 q 31 260 31 117 q 50 440 31 328 q 101 633 69 551 q 188 774 133 714 q 517 889 292 889 m 553 1200 l 615 1200 q 633 1188 626 1200 l 749 986 l 657 918 l 549 1006 l 411 918 l 344 986 l 528 1188 q 553 1200 539 1200 z "},"Õ":{"ha":875,"x_min":31,"x_max":843,"o":"m 357 578 l 293 217 l 403 217 q 483 230 457 217 q 518 290 510 243 l 582 651 l 471 651 q 392 638 418 651 q 357 578 365 625 m 517 889 q 768 820 693 889 q 843 608 843 751 q 798 309 843 465 q 655 66 753 153 q 369 -21 557 -21 q 106 48 181 -21 q 31 260 31 117 q 50 440 31 328 q 101 633 69 551 q 188 774 133 714 q 517 889 292 889 m 636 1111 l 756 1167 l 801 1054 q 602 934 622 942 q 565 926 582 926 q 536 929 547 926 q 514 940 525 932 q 496 953 503 947 q 456 989 485 960 l 338 933 l 290 1046 q 490 1166 469 1158 q 527 1174 510 1174 q 556 1171 544 1174 q 578 1160 567 1168 q 596 1147 589 1153 q 636 1111 607 1140 z "},"Ö":{"ha":875,"x_min":31,"x_max":843,"o":"m 357 578 l 293 217 l 403 217 q 483 230 457 217 q 518 290 510 243 l 582 651 l 471 651 q 392 638 418 651 q 357 578 365 625 m 517 889 q 768 820 693 889 q 843 608 843 751 q 798 309 843 465 q 655 66 753 153 q 369 -21 557 -21 q 106 48 181 -21 q 31 260 31 117 q 50 440 31 328 q 101 633 69 551 q 188 774 133 714 q 517 889 292 889 m 583 1006 q 612 1122 583 1088 q 699 1156 640 1156 q 778 1140 758 1156 q 799 1089 799 1125 q 770 973 799 1007 q 683 939 742 939 q 603 954 624 939 q 583 1006 583 969 m 294 1006 q 323 1122 294 1088 q 410 1156 351 1156 q 490 1140 469 1156 q 510 1089 510 1125 q 481 973 510 1007 q 393 939 451 939 q 315 954 335 939 q 294 1006 294 969 z "},"×":{"ha":833,"x_min":69,"x_max":760,"o":"m 179 104 l 69 246 l 281 433 l 135 621 l 294 763 l 439 575 l 650 763 l 760 621 l 550 433 l 694 246 l 535 104 l 390 292 l 179 104 z "},"Ø":{"ha":875,"x_min":31,"x_max":843,"o":"m 188 774 q 215 803 188 774 q 322 861 242 833 q 490 889 403 889 q 626 881 576 889 l 663 943 q 675 963 669 957 q 722 978 690 978 l 821 978 l 740 840 q 843 608 843 775 q 798 309 843 465 q 655 66 753 153 q 357 -21 557 -21 q 247 -12 296 -21 l 211 -75 q 199 -94 204 -89 q 151 -110 183 -110 l 53 -110 l 132 28 q 31 260 31 92 q 50 440 31 328 q 101 633 69 551 q 188 774 133 714 m 347 217 l 403 217 q 483 230 457 217 q 518 290 510 243 l 575 615 l 347 217 m 357 578 l 300 258 l 525 651 l 471 651 q 392 638 418 651 q 357 578 365 625 z "},"Ù":{"ha":857,"x_min":46,"x_max":860,"o":"m 415 868 l 300 217 l 394 217 q 464 230 443 217 q 493 290 485 243 l 596 868 l 860 868 l 774 381 q 726 190 753 263 q 650 68 699 118 q 530 -1 601 18 q 349 -21 458 -21 q 113 30 181 -21 q 46 204 46 81 q 65 381 46 272 l 151 868 l 415 868 m 686 922 l 444 971 q 408 988 422 975 l 346 1042 q 340 1058 340 1050 q 353 1082 340 1067 l 440 1185 q 463 1200 453 1200 q 481 1194 472 1200 l 743 1001 l 686 922 z "},"Ú":{"ha":857,"x_min":46,"x_max":860,"o":"m 415 868 l 300 217 l 394 217 q 464 230 443 217 q 493 290 485 243 l 596 868 l 860 868 l 774 381 q 726 190 753 263 q 650 68 699 118 q 530 -1 601 18 q 349 -21 458 -21 q 113 30 181 -21 q 46 204 46 81 q 65 381 46 272 l 151 868 l 415 868 m 635 950 l 393 901 l 336 981 l 599 1174 q 617 1179 607 1179 q 639 1164 626 1179 l 726 1061 q 739 1038 739 1047 q 735 1024 739 1029 q 671 967 732 1019 q 635 950 657 954 z "},"Û":{"ha":857,"x_min":46,"x_max":860,"o":"m 415 868 l 300 217 l 394 217 q 464 230 443 217 q 493 290 485 243 l 596 868 l 860 868 l 774 381 q 726 190 753 263 q 650 68 699 118 q 530 -1 601 18 q 349 -21 458 -21 q 113 30 181 -21 q 46 204 46 81 q 65 381 46 272 l 151 868 l 415 868 m 547 1200 l 610 1200 q 628 1188 621 1200 l 743 986 l 651 918 l 543 1006 l 406 918 l 339 986 l 522 1188 q 547 1200 533 1200 z "},"Ü":{"ha":857,"x_min":46,"x_max":860,"o":"m 415 868 l 300 217 l 394 217 q 464 230 443 217 q 493 290 485 243 l 596 868 l 860 868 l 774 381 q 726 190 753 263 q 650 68 699 118 q 530 -1 601 18 q 349 -21 458 -21 q 113 30 181 -21 q 46 204 46 81 q 65 381 46 272 l 151 868 l 415 868 m 576 1006 q 605 1122 576 1088 q 692 1156 633 1156 q 772 1140 751 1156 q 792 1089 792 1125 q 763 973 792 1007 q 676 939 735 939 q 597 954 617 939 q 576 1006 576 969 m 288 1006 q 316 1122 288 1088 q 403 1156 344 1156 q 483 1140 463 1156 q 503 1089 503 1125 q 474 973 503 1007 q 386 939 444 939 q 308 954 328 939 q 288 1006 288 969 z "},"Ý":{"ha":722,"x_min":68,"x_max":807,"o":"m 360 868 l 378 563 l 388 563 l 515 868 l 807 868 l 457 236 l 417 0 l 153 0 l 193 236 l 68 868 l 360 868 m 568 969 l 326 921 l 269 1000 l 532 1193 q 550 1199 540 1199 q 572 1183 560 1199 l 660 1081 q 672 1058 672 1067 q 669 1044 672 1049 q 604 986 665 1039 q 568 969 590 974 z "},"Þ":{"ha":778,"x_min":11,"x_max":799,"o":"m 465 106 l 293 106 l 275 0 l 11 0 l 164 868 l 428 868 l 408 764 l 561 764 q 799 543 799 764 q 769 355 799 438 q 704 223 739 272 q 607 140 669 174 q 465 106 544 106 m 369 542 l 332 328 l 393 328 q 465 338 440 328 q 496 386 489 349 l 513 483 q 514 499 514 489 q 493 533 514 525 q 431 542 472 542 l 369 542 z "},"ß":{"ha":882,"x_min":43,"x_max":840,"o":"m 68 514 l 100 694 l 165 694 l 189 778 q 321 913 219 883 q 551 938 407 938 q 808 764 808 938 q 647 436 808 624 q 840 275 840 436 q 760 60 840 140 q 538 -21 679 -21 q 354 -1 397 -21 l 415 196 q 523 181 469 181 q 576 186 576 181 l 585 231 q 464 256 504 231 q 424 340 424 281 q 480 518 424 400 q 536 676 536 636 q 481 721 536 721 q 432 715 460 721 l 307 0 l 43 0 l 133 514 l 68 514 z "},"à":{"ha":815,"x_min":38,"x_max":785,"o":"m 660 749 l 418 797 q 382 814 396 801 l 319 868 q 314 885 314 876 q 326 908 314 894 l 414 1011 q 436 1026 426 1026 q 454 1021 446 1026 l 717 828 l 660 749 m 785 660 l 669 0 l 538 0 l 475 79 q 385 5 431 31 q 269 -21 340 -21 q 91 49 144 -21 q 38 229 38 118 q 144 572 38 428 q 439 715 250 715 q 785 660 599 715 m 353 454 l 306 182 l 346 182 q 393 184 376 182 q 426 198 410 186 q 446 232 442 210 l 496 513 l 454 513 q 383 502 407 513 q 353 454 360 492 z "},"á":{"ha":815,"x_min":38,"x_max":785,"o":"m 785 660 l 669 0 l 538 0 l 475 79 q 385 5 431 31 q 269 -21 340 -21 q 91 49 144 -21 q 38 229 38 118 q 144 572 38 428 q 439 715 250 715 q 785 660 599 715 m 353 454 l 306 182 l 346 182 q 393 184 376 182 q 426 198 410 186 q 446 232 442 210 l 496 513 l 454 513 q 383 502 407 513 q 353 454 360 492 m 613 797 l 371 749 l 314 828 l 576 1021 q 594 1026 585 1026 q 617 1011 604 1026 l 704 908 q 717 885 717 894 q 713 872 717 876 q 649 814 710 867 q 613 797 635 801 z "},"â":{"ha":815,"x_min":38,"x_max":785,"o":"m 521 1028 l 583 1028 q 601 1015 594 1028 l 717 814 l 625 746 l 517 833 l 379 746 l 313 814 l 496 1015 q 521 1028 506 1028 m 785 660 l 669 0 l 538 0 l 475 79 q 385 5 431 31 q 269 -21 340 -21 q 91 49 144 -21 q 38 229 38 118 q 144 572 38 428 q 439 715 250 715 q 785 660 599 715 m 353 454 l 306 182 l 346 182 q 393 184 376 182 q 426 198 410 186 q 446 232 442 210 l 496 513 l 454 513 q 383 502 407 513 q 353 454 360 492 z "},"ã":{"ha":815,"x_min":38,"x_max":785,"o":"m 785 660 l 669 0 l 538 0 l 475 79 q 385 5 431 31 q 269 -21 340 -21 q 91 49 144 -21 q 38 229 38 118 q 144 572 38 428 q 439 715 250 715 q 785 660 599 715 m 353 454 l 306 182 l 346 182 q 393 184 376 182 q 426 198 410 186 q 446 232 442 210 l 496 513 l 454 513 q 383 502 407 513 q 353 454 360 492 m 603 939 l 722 994 l 768 882 q 569 762 589 769 q 531 754 549 754 q 503 757 514 754 q 481 767 492 760 q 463 781 469 775 q 422 817 451 788 l 304 761 l 257 874 q 456 994 436 986 q 494 1001 476 1001 q 522 999 511 1001 q 544 988 533 996 q 563 975 556 981 q 603 939 574 968 z "},"ä":{"ha":815,"x_min":38,"x_max":785,"o":"m 549 833 q 577 949 549 915 q 665 983 606 983 q 744 968 724 983 q 764 917 764 953 q 735 801 764 835 q 648 767 707 767 q 569 782 589 767 q 549 833 549 797 m 260 833 q 288 949 260 915 q 376 983 317 983 q 455 968 435 983 q 475 917 475 953 q 446 801 475 835 q 358 767 417 767 q 280 782 300 767 q 260 833 260 797 m 785 660 l 669 0 l 538 0 l 475 79 q 385 5 431 31 q 269 -21 340 -21 q 91 49 144 -21 q 38 229 38 118 q 144 572 38 428 q 439 715 250 715 q 785 660 599 715 m 353 454 l 306 182 l 346 182 q 393 184 376 182 q 426 198 410 186 q 446 232 442 210 l 496 513 l 454 513 q 383 502 407 513 q 353 454 360 492 z "},"å":{"ha":815,"x_min":38,"x_max":785,"o":"m 785 660 l 669 0 l 538 0 l 475 79 q 385 5 431 31 q 269 -21 340 -21 q 91 49 144 -21 q 38 229 38 118 q 144 572 38 428 q 439 715 250 715 q 785 660 599 715 m 353 454 l 306 182 l 346 182 q 393 184 376 182 q 426 198 410 186 q 446 232 442 210 l 496 513 l 454 513 q 383 502 407 513 q 353 454 360 492 m 465 922 l 449 828 l 504 828 q 552 838 542 828 q 565 864 563 847 l 582 957 l 531 957 q 479 947 490 957 q 465 922 468 938 m 544 1053 q 674 942 674 1053 q 625 785 674 839 q 488 732 576 732 q 358 843 358 732 q 407 999 358 946 q 544 1053 456 1053 z "},"æ":{"ha":1174,"x_min":38,"x_max":1149,"o":"m 789 715 l 776 653 l 786 653 q 939 715 828 715 q 1149 544 1149 715 q 1071 322 1149 397 q 858 244 1008 263 q 711 236 799 238 l 703 188 q 782 183 742 183 q 1036 225 910 183 l 1032 21 q 732 -21 878 -21 q 475 79 542 -21 q 385 5 431 31 q 269 -21 340 -21 q 91 49 144 -21 q 38 229 38 118 q 144 572 38 428 q 439 715 250 715 q 617 656 539 715 l 665 715 l 789 715 m 353 454 l 306 182 l 346 182 q 393 184 376 182 q 426 198 410 186 q 446 232 442 210 l 496 513 l 454 513 q 383 502 407 513 q 353 454 360 492 m 851 513 q 785 503 808 513 q 753 465 761 494 l 740 397 l 794 397 q 864 408 840 397 q 894 456 888 418 l 906 513 l 851 513 z "},"ç":{"ha":619,"x_min":49,"x_max":647,"o":"m 225 -36 l 229 -8 q 49 235 49 32 q 151 577 49 439 q 453 715 254 715 q 647 686 589 715 l 582 497 q 474 513 513 513 q 360 439 372 513 l 317 190 q 413 182 353 182 q 546 208 474 182 l 528 8 q 376 -19 457 -18 q 396 -99 396 -51 q 351 -187 396 -146 q 233 -229 307 -229 q 94 -203 158 -229 l 131 -81 l 174 -81 q 210 -73 201 -81 q 225 -36 219 -65 z "},"è":{"ha":785,"x_min":47,"x_max":760,"o":"m 322 236 l 314 188 q 393 183 353 183 q 647 225 521 183 l 643 21 q 339 -21 489 -21 q 47 232 47 -21 q 222 647 47 518 q 450 715 317 715 q 692 678 624 715 q 760 554 760 642 q 738 411 760 467 q 682 322 717 356 q 589 269 647 289 q 322 236 489 239 m 361 454 l 351 397 l 406 397 q 475 408 451 397 q 506 456 499 418 l 517 513 l 463 513 q 392 502 415 513 q 361 454 368 492 m 640 749 l 399 797 q 363 814 376 801 l 300 868 q 294 885 294 876 q 307 908 294 894 l 394 1011 q 417 1026 407 1026 q 435 1021 426 1026 l 697 828 l 640 749 z "},"é":{"ha":785,"x_min":47,"x_max":760,"o":"m 322 236 l 314 188 q 393 183 353 183 q 647 225 521 183 l 643 21 q 339 -21 489 -21 q 47 232 47 -21 q 222 647 47 518 q 450 715 317 715 q 692 678 624 715 q 760 554 760 642 q 738 411 760 467 q 682 322 717 356 q 589 269 647 289 q 322 236 489 239 m 361 454 l 351 397 l 406 397 q 475 408 451 397 q 506 456 499 418 l 517 513 l 463 513 q 392 502 415 513 q 361 454 368 492 m 594 797 l 353 749 l 296 828 l 558 1021 q 576 1026 567 1026 q 599 1011 586 1026 l 686 908 q 699 885 699 894 q 695 872 699 876 q 631 814 692 867 q 594 797 617 801 z "},"ê":{"ha":785,"x_min":47,"x_max":760,"o":"m 322 236 l 314 188 q 393 183 353 183 q 647 225 521 183 l 643 21 q 339 -21 489 -21 q 47 232 47 -21 q 222 647 47 518 q 450 715 317 715 q 692 678 624 715 q 760 554 760 642 q 738 411 760 467 q 682 322 717 356 q 589 269 647 289 q 322 236 489 239 m 361 454 l 351 397 l 406 397 q 475 408 451 397 q 506 456 499 418 l 517 513 l 463 513 q 392 502 415 513 q 361 454 368 492 m 504 1028 l 567 1028 q 585 1015 578 1028 l 700 814 l 608 746 l 500 833 l 363 746 l 296 814 l 479 1015 q 504 1028 489 1028 z "},"ë":{"ha":785,"x_min":47,"x_max":760,"o":"m 322 236 l 314 188 q 393 183 353 183 q 647 225 521 183 l 643 21 q 339 -21 489 -21 q 47 232 47 -21 q 222 647 47 518 q 450 715 317 715 q 692 678 624 715 q 760 554 760 642 q 738 411 760 467 q 682 322 717 356 q 589 269 647 289 q 322 236 489 239 m 361 454 l 351 397 l 406 397 q 475 408 451 397 q 506 456 499 418 l 517 513 l 463 513 q 392 502 415 513 q 361 454 368 492 m 532 833 q 560 949 532 915 q 648 983 589 983 q 727 968 707 983 q 747 917 747 953 q 719 801 747 835 q 631 767 690 767 q 552 782 572 767 q 532 833 532 797 m 243 833 q 272 949 243 915 q 359 983 300 983 q 438 968 418 983 q 458 917 458 953 q 429 801 458 835 q 342 767 400 767 q 263 782 283 767 q 243 833 243 797 z "},"ì":{"ha":417,"x_min":15,"x_max":490,"o":"m 15 0 l 131 660 l 401 694 l 279 0 l 15 0 m 433 749 l 192 797 q 156 814 169 801 l 93 868 q 88 885 88 876 q 100 908 88 894 l 188 1011 q 210 1026 200 1026 q 228 1021 219 1026 l 490 828 l 433 749 z "},"í":{"ha":417,"x_min":15,"x_max":490,"o":"m 15 0 l 131 660 l 401 694 l 279 0 l 15 0 m 386 797 l 144 749 l 88 828 l 350 1021 q 368 1026 358 1026 q 390 1011 378 1026 l 478 908 q 490 885 490 894 q 487 872 490 876 q 422 814 483 867 q 386 797 408 801 z "},"î":{"ha":417,"x_min":15,"x_max":492,"o":"m 15 0 l 131 660 l 401 694 l 279 0 l 15 0 m 296 1028 l 358 1028 q 376 1015 369 1028 l 492 814 l 400 746 l 292 833 l 154 746 l 88 814 l 271 1015 q 296 1028 281 1028 z "},"ï":{"ha":417,"x_min":15,"x_max":557,"o":"m 15 0 l 131 660 l 401 694 l 279 0 l 15 0 m 342 833 q 370 949 342 915 q 458 983 399 983 q 537 968 517 983 q 557 917 557 953 q 528 801 557 835 q 441 767 500 767 q 362 782 382 767 q 342 833 342 797 m 53 833 q 81 949 53 915 q 169 983 110 983 q 248 968 228 983 q 268 917 268 953 q 239 801 268 835 q 151 767 210 767 q 73 782 93 767 q 53 833 53 797 z "},"ð":{"ha":799,"x_min":42,"x_max":757,"o":"m 674 792 l 639 781 q 757 443 757 600 q 664 117 757 244 q 535 16 617 53 q 347 -21 454 -21 q 115 47 189 -21 q 42 249 42 114 q 138 516 42 428 q 451 604 235 604 q 404 707 433 656 l 247 657 l 240 731 q 256 760 244 751 q 297 779 267 769 l 350 796 q 282 883 315 844 l 494 944 q 576 867 535 915 l 724 914 l 731 840 q 715 810 726 819 q 674 792 704 801 m 336 388 l 299 168 l 339 168 q 410 178 386 168 q 440 226 433 189 l 479 446 l 438 446 q 367 435 390 446 q 336 388 343 425 z "},"ñ":{"ha":826,"x_min":26,"x_max":786,"o":"m 281 694 l 335 625 q 614 715 471 715 q 741 682 696 715 q 786 588 786 649 q 783 556 786 578 l 686 0 l 422 0 l 507 486 l 467 486 q 397 476 422 486 q 367 433 372 465 l 290 0 l 26 0 l 149 694 l 281 694 m 606 939 l 725 994 l 771 882 q 572 762 592 769 q 534 754 551 754 q 506 757 517 754 q 483 767 494 760 q 465 781 472 775 q 425 817 454 788 l 307 761 l 260 874 q 459 994 439 986 q 497 1001 479 1001 q 525 999 514 1001 q 547 988 536 996 q 565 975 558 981 q 606 939 576 968 z "},"ò":{"ha":819,"x_min":49,"x_max":771,"o":"m 49 232 q 155 578 49 440 q 474 715 261 715 q 699 652 628 715 q 771 458 771 589 q 728 222 771 328 q 588 48 686 117 q 340 -21 489 -21 q 49 232 49 -21 m 363 454 l 315 182 l 356 182 q 426 192 403 182 q 457 240 450 203 l 506 513 l 464 513 q 393 502 417 513 q 363 454 369 492 m 650 749 l 408 797 q 372 814 386 801 l 310 868 q 304 885 304 876 q 317 908 304 894 l 404 1011 q 426 1026 417 1026 q 444 1021 436 1026 l 707 828 l 650 749 z "},"ó":{"ha":819,"x_min":49,"x_max":771,"o":"m 49 232 q 155 578 49 440 q 474 715 261 715 q 699 652 628 715 q 771 458 771 589 q 728 222 771 328 q 588 48 686 117 q 340 -21 489 -21 q 49 232 49 -21 m 363 454 l 315 182 l 356 182 q 426 192 403 182 q 457 240 450 203 l 506 513 l 464 513 q 393 502 417 513 q 363 454 369 492 m 603 797 l 361 749 l 304 828 l 567 1021 q 585 1026 575 1026 q 607 1011 594 1026 l 694 908 q 707 885 707 894 q 703 872 707 876 q 639 814 700 867 q 603 797 625 801 z "},"ô":{"ha":819,"x_min":49,"x_max":771,"o":"m 49 232 q 155 578 49 440 q 474 715 261 715 q 699 652 628 715 q 771 458 771 589 q 728 222 771 328 q 588 48 686 117 q 340 -21 489 -21 q 49 232 49 -21 m 363 454 l 315 182 l 356 182 q 426 192 403 182 q 457 240 450 203 l 506 513 l 464 513 q 393 502 417 513 q 363 454 369 492 m 513 1028 l 575 1028 q 593 1015 586 1028 l 708 814 l 617 746 l 508 833 l 371 746 l 304 814 l 488 1015 q 513 1028 497 1028 z "},"õ":{"ha":819,"x_min":49,"x_max":771,"o":"m 49 232 q 155 578 49 440 q 474 715 261 715 q 699 652 628 715 q 771 458 771 589 q 728 222 771 328 q 588 48 686 117 q 340 -21 489 -21 q 49 232 49 -21 m 363 454 l 315 182 l 356 182 q 426 192 403 182 q 457 240 450 203 l 506 513 l 464 513 q 393 502 417 513 q 363 454 369 492 m 594 939 l 714 994 l 760 882 q 560 762 581 769 q 523 754 540 754 q 494 757 506 754 q 472 767 483 760 q 454 781 461 775 q 414 817 443 788 l 296 761 l 249 874 q 448 994 428 986 q 485 1001 468 1001 q 514 999 503 1001 q 536 988 525 996 q 554 975 547 981 q 594 939 565 968 z "},"ö":{"ha":819,"x_min":49,"x_max":771,"o":"m 49 232 q 155 578 49 440 q 474 715 261 715 q 699 652 628 715 q 771 458 771 589 q 728 222 771 328 q 588 48 686 117 q 340 -21 489 -21 q 49 232 49 -21 m 363 454 l 315 182 l 356 182 q 426 192 403 182 q 457 240 450 203 l 506 513 l 464 513 q 393 502 417 513 q 363 454 369 492 m 540 833 q 569 949 540 915 q 656 983 597 983 q 735 968 715 983 q 756 917 756 953 q 727 801 756 835 q 640 767 699 767 q 560 782 581 767 q 540 833 540 797 m 251 833 q 280 949 251 915 q 367 983 308 983 q 447 968 426 983 q 467 917 467 953 q 438 801 467 835 q 350 767 408 767 q 272 782 292 767 q 251 833 251 797 z "},"÷":{"ha":833,"x_min":99,"x_max":735,"o":"m 581 769 l 557 635 q 499 594 550 594 l 393 594 q 347 625 347 594 q 371 760 347 632 q 429 799 378 799 l 535 799 q 581 769 581 799 m 488 242 l 464 107 q 406 67 457 67 l 300 67 q 254 97 254 67 q 278 232 254 104 q 336 271 285 271 l 442 271 q 488 242 488 271 m 99 333 l 133 533 l 735 533 l 700 333 l 99 333 z "},"ø":{"ha":819,"x_min":49,"x_max":771,"o":"m 49 232 q 155 578 49 440 q 474 715 261 715 q 549 711 515 715 l 600 800 q 613 819 607 814 q 660 835 628 835 l 758 835 l 667 675 q 771 471 771 614 q 728 222 771 328 q 588 48 686 117 q 344 -21 489 -21 q 271 -17 304 -21 l 218 -110 q 206 -129 211 -124 q 158 -144 190 -144 l 60 -144 l 153 18 q 49 232 49 76 m 363 454 l 328 251 l 476 513 l 464 513 q 393 502 417 513 q 363 454 369 492 m 344 182 l 356 182 q 426 192 403 182 q 457 240 450 203 l 493 440 l 344 182 z "},"ù":{"ha":819,"x_min":42,"x_max":794,"o":"m 399 694 l 308 182 l 349 182 q 419 192 396 182 q 450 240 443 203 l 531 694 l 794 694 l 672 0 l 540 0 l 478 79 q 233 -21 381 -21 q 88 15 135 -21 q 42 135 42 51 q 49 208 42 174 l 135 694 l 399 694 m 644 749 l 403 797 q 367 814 381 801 l 304 868 q 299 885 299 876 q 311 908 299 894 l 399 1011 q 421 1026 411 1026 q 439 1021 431 1026 l 701 828 l 644 749 z "},"ú":{"ha":819,"x_min":42,"x_max":794,"o":"m 399 694 l 308 182 l 349 182 q 419 192 396 182 q 450 240 443 203 l 531 694 l 794 694 l 672 0 l 540 0 l 478 79 q 233 -21 381 -21 q 88 15 135 -21 q 42 135 42 51 q 49 208 42 174 l 135 694 l 399 694 m 597 797 l 356 749 l 299 828 l 561 1021 q 579 1026 569 1026 q 601 1011 589 1026 l 689 908 q 701 885 701 894 q 698 872 701 876 q 633 814 694 867 q 597 797 619 801 z "},"û":{"ha":819,"x_min":42,"x_max":794,"o":"m 399 694 l 308 182 l 349 182 q 419 192 396 182 q 450 240 443 203 l 531 694 l 794 694 l 672 0 l 540 0 l 478 79 q 233 -21 381 -21 q 88 15 135 -21 q 42 135 42 51 q 49 208 42 174 l 135 694 l 399 694 m 506 1028 l 568 1028 q 586 1015 579 1028 l 701 814 l 610 746 l 501 833 l 364 746 l 297 814 l 481 1015 q 506 1028 492 1028 z "},"ü":{"ha":819,"x_min":42,"x_max":794,"o":"m 399 694 l 308 182 l 349 182 q 419 192 396 182 q 450 240 443 203 l 531 694 l 794 694 l 672 0 l 540 0 l 478 79 q 233 -21 381 -21 q 88 15 135 -21 q 42 135 42 51 q 49 208 42 174 l 135 694 l 399 694 m 533 833 q 562 949 533 915 q 649 983 590 983 q 728 968 708 983 q 749 917 749 953 q 720 801 749 835 q 633 767 692 767 q 553 782 574 767 q 533 833 533 797 m 244 833 q 273 949 244 915 q 360 983 301 983 q 440 968 419 983 q 460 917 460 953 q 431 801 460 835 q 343 767 401 767 q 265 782 285 767 q 244 833 244 797 z "},"ý":{"ha":722,"x_min":-71,"x_max":765,"o":"m 117 72 l 79 694 l 335 694 l 335 243 l 349 243 l 501 694 l 765 694 l 478 0 q 356 -183 421 -137 q 185 -229 292 -229 l -71 -229 l -40 -49 l 88 -24 q 256 64 228 4 l 256 72 l 117 72 m 553 797 l 311 749 l 254 828 l 517 1021 q 535 1026 525 1026 q 557 1011 544 1026 l 644 908 q 657 885 657 894 q 653 872 657 876 q 589 814 650 867 q 553 797 575 801 z "},"þ":{"ha":826,"x_min":-14,"x_max":778,"o":"m 185 903 l 453 924 l 411 693 q 547 715 465 715 q 778 460 778 715 q 686 126 778 260 q 560 19 640 58 q 375 -21 481 -21 l 286 -21 l 253 -208 l -14 -229 l 185 903 m 371 461 l 322 182 l 364 182 q 434 192 411 182 q 464 240 457 203 l 513 513 l 472 513 q 394 498 414 513 q 371 461 375 483 z "},"ÿ":{"ha":722,"x_min":-71,"x_max":765,"o":"m 117 72 l 79 694 l 335 694 l 335 243 l 349 243 l 501 694 l 765 694 l 478 0 q 356 -183 421 -137 q 185 -229 292 -229 l -71 -229 l -40 -49 l 88 -24 q 256 64 228 4 l 256 72 l 117 72 m 488 833 q 516 949 488 915 q 603 983 544 983 q 683 968 663 983 q 703 917 703 953 q 674 801 703 835 q 587 767 646 767 q 508 782 528 767 q 488 833 488 797 m 199 833 q 227 949 199 915 q 315 983 256 983 q 394 968 374 983 q 414 917 414 953 q 385 801 414 835 q 297 767 356 767 q 219 782 239 767 q 199 833 199 797 z "},"ı":{"ha":417,"x_min":15,"x_max":401,"o":"m 15 0 l 131 660 l 401 694 l 279 0 l 15 0 z "},"Ł":{"ha":592,"x_min":-39,"x_max":578,"o":"m 7 306 q -39 456 -39 446 q 31 510 -39 488 l 106 533 l 164 868 l 428 868 l 385 625 l 450 647 q 494 492 494 507 q 425 442 494 464 l 347 417 l 314 222 l 578 222 l 539 0 l 11 0 l 68 325 l 7 306 z "},"ł":{"ha":429,"x_min":-35,"x_max":499,"o":"m 443 924 l 390 626 l 454 647 q 499 492 499 507 q 429 442 499 464 l 353 417 l 315 199 q 378 189 356 190 l 331 -15 q 93 11 147 -15 q 53 47 69 24 q 36 89 36 69 q 39 131 36 108 l 74 325 l 11 306 q -35 456 -35 446 q 35 510 -35 488 l 110 535 l 175 903 l 443 924 z "},"Œ":{"ha":1167,"x_min":31,"x_max":1175,"o":"m 1029 0 l 528 0 q 357 -21 456 -21 q 106 48 181 -21 q 31 260 31 117 q 50 440 31 328 q 101 633 69 551 q 188 774 133 714 q 517 889 292 889 q 681 868 614 889 l 1175 868 l 1101 646 l 844 646 l 825 529 l 1063 529 l 1026 328 l 789 328 l 771 222 l 1068 222 l 1029 0 m 357 578 l 293 217 l 403 217 q 501 244 481 217 q 517 281 511 258 l 582 651 l 471 651 q 392 638 418 651 q 357 578 365 625 z "},"œ":{"ha":1207,"x_min":49,"x_max":1182,"o":"m 744 236 l 736 188 q 815 183 775 183 q 1069 225 943 183 l 1065 21 q 772 -21 911 -21 q 558 29 632 -21 q 329 -21 467 -21 q 49 232 49 -21 q 155 578 49 440 q 474 715 261 715 q 676 668 603 715 q 872 715 760 715 q 1114 678 1046 715 q 1182 554 1182 642 q 1160 411 1182 467 q 1104 322 1139 356 q 1011 269 1069 289 q 744 236 911 239 m 363 454 l 315 182 l 356 182 q 426 192 403 182 q 457 240 450 203 l 506 513 l 464 513 q 393 502 417 513 q 363 454 369 492 m 783 454 l 774 397 l 828 397 q 897 408 874 397 q 928 456 921 418 l 939 513 l 885 513 q 814 502 838 513 q 783 454 790 492 z "},"Š":{"ha":799,"x_min":-14,"x_max":785,"o":"m -14 15 l 64 244 q 278 213 181 213 q 435 221 375 213 l 446 290 l 331 301 q 144 361 199 314 q 89 494 89 408 q 97 578 89 532 q 213 822 129 756 q 474 889 297 889 q 785 854 650 889 l 713 632 q 518 653 592 653 q 393 646 444 653 l 382 578 l 475 568 q 676 501 617 553 q 736 361 736 449 q 697 178 736 272 q 655 97 678 129 q 597 41 632 64 q 532 6 561 18 q 458 -11 503 -6 q 299 -21 393 -21 q -14 15 126 -21 m 532 918 l 469 918 q 450 931 460 918 l 336 1132 l 428 1200 l 535 1113 l 674 1200 l 740 1132 l 556 931 q 532 918 543 918 z "},"š":{"ha":731,"x_min":-6,"x_max":710,"o":"m 78 410 q 165 637 78 558 q 422 715 251 715 q 710 672 592 715 l 646 483 q 446 514 550 514 q 354 508 413 514 l 346 464 q 599 417 525 464 q 672 283 672 371 q 324 -21 672 -21 q -6 19 117 -21 l 61 217 q 294 181 168 181 q 404 186 356 181 l 413 231 q 153 274 229 231 q 78 410 78 318 m 479 746 l 417 746 q 397 758 407 746 l 283 960 l 375 1028 l 482 940 l 621 1028 l 688 960 l 503 758 q 479 746 490 746 z "},"Ÿ":{"ha":722,"x_min":68,"x_max":807,"o":"m 360 868 l 378 563 l 388 563 l 515 868 l 807 868 l 457 236 l 417 0 l 153 0 l 193 236 l 68 868 l 360 868 m 507 1006 q 535 1122 507 1088 q 623 1156 564 1156 q 702 1140 682 1156 q 722 1089 722 1125 q 694 973 722 1007 q 606 939 665 939 q 527 954 547 939 q 507 1006 507 969 m 218 1006 q 247 1122 218 1088 q 334 1156 275 1156 q 413 1140 393 1156 q 433 1089 433 1125 q 404 973 433 1007 q 317 939 375 939 q 238 954 258 939 q 218 1006 218 969 z "},"Ž":{"ha":761,"x_min":-69,"x_max":789,"o":"m 642 0 l -69 0 l -39 174 l 379 638 l 376 646 l 100 646 l 115 868 l 789 868 l 758 694 l 343 231 l 344 222 l 681 222 l 642 0 m 483 918 l 421 918 q 401 931 411 918 l 288 1132 l 379 1200 l 486 1113 l 625 1200 l 692 1132 l 507 931 q 483 918 494 918 z "},"ž":{"ha":717,"x_min":-28,"x_max":719,"o":"m -4 139 l 314 478 l 311 486 l 103 486 l 121 694 l 719 694 l 694 556 l 381 217 l 383 208 l 642 208 l 606 0 l -28 0 l -4 139 m 433 746 l 371 746 q 351 758 361 746 l 238 960 l 329 1028 l 436 940 l 575 1028 l 642 960 l 457 758 q 433 746 444 746 z "},"ƒ":{"ha":665,"x_min":-86,"x_max":724,"o":"m 479 594 l 461 513 l 610 513 l 571 364 l 429 364 l 350 0 q 104 -229 299 -229 l -86 -229 l -56 -49 l 17 -35 q 66 -17 49 -29 q 89 21 83 -6 l 164 364 l 64 364 l 90 513 l 197 513 l 219 615 q 317 822 249 754 q 503 890 386 890 q 724 864 621 890 l 650 663 l 588 663 q 515 650 542 663 q 479 594 489 638 z "},"ˆ":{"ha":535,"x_min":56,"x_max":460,"o":"m 264 1028 l 326 1028 q 344 1015 338 1028 l 460 814 l 368 746 l 260 833 l 122 746 l 56 814 l 239 1015 q 264 1028 250 1028 z "},"ˇ":{"ha":535,"x_min":79,"x_max":483,"o":"m 275 746 l 213 746 q 193 758 203 746 l 79 960 l 171 1028 l 278 940 l 417 1028 l 483 960 l 299 758 q 275 746 286 746 z "},"˘":{"ha":535,"x_min":56,"x_max":507,"o":"m 200 978 q 222 922 201 942 q 271 901 242 901 q 328 922 300 901 q 371 978 356 942 l 507 957 q 397 814 469 864 q 247 764 325 764 q 114 814 168 764 q 56 957 60 864 l 200 978 z "},"˙":{"ha":368,"x_min":51,"x_max":317,"o":"m 51 822 q 208 1013 51 1013 q 292 994 268 1013 q 317 931 317 975 q 161 746 317 746 q 76 763 101 746 q 51 822 51 781 z "},"˚":{"ha":368,"x_min":29,"x_max":344,"o":"m 136 922 l 119 828 l 175 828 q 223 838 213 828 q 236 864 233 847 l 253 957 l 201 957 q 150 947 161 957 q 136 922 139 938 m 215 1053 q 344 942 344 1053 q 296 785 344 839 q 158 732 247 732 q 29 843 29 732 q 78 999 29 946 q 215 1053 126 1053 z "},"˛":{"ha":694,"x_min":196,"x_max":475,"o":"m 432 29 l 453 0 l 375 -36 q 372 -64 372 -56 q 410 -81 372 -81 l 475 -81 l 468 -203 q 331 -229 400 -229 q 228 -202 261 -229 q 196 -130 196 -175 q 231 -42 196 -85 q 326 29 265 1 l 432 29 z "},"˜":{"ha":636,"x_min":63,"x_max":574,"o":"m 408 939 l 528 994 l 574 882 q 374 762 394 769 q 337 754 354 754 q 308 757 319 754 q 286 767 297 760 q 268 781 275 775 q 228 817 257 788 l 110 761 l 63 874 q 262 994 242 986 q 299 1001 282 1001 q 328 999 317 1001 q 350 988 339 996 q 368 975 361 981 q 408 939 379 968 z "},"˝":{"ha":832,"x_min":67,"x_max":771,"o":"m 122 736 l 67 818 l 261 1013 q 283 1028 274 1028 q 308 1013 292 1029 l 396 910 q 406 886 406 899 q 393 861 406 874 l 336 808 q 290 786 324 796 l 122 736 m 488 736 l 432 818 l 626 1013 q 648 1028 639 1028 q 674 1013 657 1029 l 761 910 q 771 886 771 899 q 758 861 771 874 l 701 808 q 656 786 689 796 l 488 736 z "},"π":{"ha":913,"x_min":57,"x_max":907,"o":"m 142 694 l 699 694 q 715 744 707 715 l 907 735 q 847 533 881 583 q 760 486 814 486 l 710 199 q 772 189 750 190 l 725 -15 q 488 11 542 -15 q 447 47 464 24 q 431 89 431 69 q 433 131 431 108 l 496 486 l 488 486 q 407 433 424 483 l 257 0 l 57 0 l 179 508 l 111 525 l 142 694 z "},"–":{"ha":826,"x_min":28,"x_max":782,"o":"m 28 278 l 54 428 q 84 476 61 465 q 154 486 107 486 l 782 486 l 756 336 q 726 288 749 299 q 656 278 703 278 l 28 278 z "},"—":{"ha":1186,"x_min":38,"x_max":1135,"o":"m 38 278 l 64 428 q 94 476 71 465 q 164 486 117 486 l 1135 486 l 1108 336 q 1078 288 1101 299 q 1007 278 1054 278 l 38 278 z "},"‘":{"ha":361,"x_min":49,"x_max":361,"o":"m 344 619 q 172 435 344 435 q 76 456 104 435 q 49 524 49 476 q 56 583 49 546 l 58 600 q 84 675 68 647 q 112 719 100 703 q 126 742 124 736 l 250 931 l 361 890 l 281 689 q 330 667 315 683 q 344 619 344 650 z "},"’":{"ha":410,"x_min":63,"x_max":375,"o":"m 79 729 q 251 914 79 914 q 347 893 319 914 q 375 825 375 872 q 368 765 375 803 l 365 749 q 340 674 356 701 q 312 629 324 646 q 297 607 300 613 l 174 418 l 63 458 l 143 660 q 94 682 108 665 q 79 729 79 699 z "},"‚":{"ha":385,"x_min":33,"x_max":344,"o":"m 51 138 q 101 253 65 219 q 213 286 136 286 q 317 265 290 286 q 344 196 344 244 q 267 -21 344 100 l 144 -210 l 33 -169 l 111 31 q 47 100 47 42 q 51 138 47 117 z "},"“":{"ha":690,"x_min":49,"x_max":690,"o":"m 675 618 q 501 435 675 435 q 407 456 435 435 q 379 515 379 476 q 386 583 379 554 l 390 600 q 457 742 407 664 l 581 931 l 690 890 l 611 689 q 675 618 675 678 m 344 619 q 172 435 344 435 q 76 456 104 435 q 49 516 49 476 q 56 583 49 556 l 60 600 q 126 742 76 664 l 250 931 l 361 890 l 281 689 q 330 667 315 683 q 344 619 344 650 z "},"”":{"ha":739,"x_min":63,"x_max":704,"o":"m 78 731 q 251 914 78 914 q 346 893 318 914 q 374 825 374 872 q 367 765 374 804 l 364 749 q 338 674 354 701 q 310 629 322 646 q 296 607 299 613 l 172 418 l 63 458 l 142 660 q 78 731 78 671 m 408 729 q 581 914 408 914 q 676 893 649 914 q 704 825 704 872 q 697 765 704 803 l 694 749 q 669 674 685 701 q 641 629 653 646 q 626 607 629 613 l 503 418 l 392 458 l 472 660 q 423 682 438 665 q 408 729 408 699 z "},"„":{"ha":715,"x_min":33,"x_max":675,"o":"m 49 106 q 222 289 49 289 q 317 268 289 289 q 344 200 344 247 q 338 140 344 179 l 335 124 q 309 49 325 76 q 281 4 293 21 q 267 -18 269 -12 l 143 -207 l 33 -167 l 113 35 q 49 106 49 46 m 379 104 q 551 289 379 289 q 647 268 619 289 q 675 200 675 247 q 668 140 675 178 l 665 124 q 640 49 656 76 q 612 4 624 21 q 597 -18 600 -12 l 474 -207 l 363 -167 l 443 35 q 394 57 408 40 q 379 104 379 74 z "},"†":{"ha":750,"x_min":63,"x_max":742,"o":"m 696 458 l 488 486 l 432 -69 l 142 -69 l 279 486 l 63 458 l 108 722 l 317 694 l 317 924 l 607 924 l 532 690 l 742 722 l 696 458 z "},"‡":{"ha":750,"x_min":3,"x_max":740,"o":"m 694 458 l 489 486 l 475 426 l 468 367 l 683 396 l 636 132 l 450 161 l 431 -69 l 140 -69 l 200 161 l 3 132 l 50 396 l 256 368 l 271 426 l 276 486 l 61 458 l 107 722 l 293 693 l 315 924 l 606 924 l 543 693 l 740 722 l 694 458 z "},"•":{"ha":475,"x_min":28,"x_max":417,"o":"m 28 271 q 258 539 28 539 q 381 512 346 539 q 417 424 417 485 q 367 226 417 297 q 190 156 317 156 q 64 182 100 156 q 28 271 28 208 z "},"…":{"ha":1113,"x_min":43,"x_max":1083,"o":"m 43 79 q 219 286 43 286 q 315 265 288 286 q 342 196 342 244 q 303 46 342 100 q 167 -8 264 -8 q 70 12 97 -8 q 43 79 43 32 m 414 79 q 590 286 414 286 q 685 265 658 286 q 713 196 713 244 q 674 46 713 100 q 538 -8 635 -8 q 441 12 468 -8 q 414 79 414 32 m 785 79 q 961 286 785 286 q 1056 265 1029 286 q 1083 196 1083 244 q 1044 46 1083 100 q 908 -8 1006 -8 q 812 12 839 -8 q 785 79 785 32 z "},"‰":{"ha":1579,"x_min":85,"x_max":1522,"o":"m 931 924 l 557 -21 q 497 -56 543 -56 l 426 -56 l 800 889 q 860 924 814 924 l 931 924 m 997 381 l 953 128 l 978 128 q 1049 161 1043 128 l 1093 413 l 1065 413 q 997 381 1003 413 m 85 461 q 99 583 85 506 q 129 709 113 661 q 176 796 146 757 q 376 868 233 868 q 524 830 482 868 q 567 711 567 792 q 553 587 567 665 q 522 461 539 508 q 475 375 506 414 q 276 303 421 303 q 128 341 171 303 q 85 461 85 379 m 300 696 l 256 443 l 281 443 q 351 476 346 443 l 396 728 l 368 728 q 300 696 306 728 m 1256 381 l 1211 128 l 1236 128 q 1307 161 1301 128 l 1351 413 l 1324 413 q 1256 381 1261 413 m 782 146 q 796 268 782 190 q 826 394 810 346 q 874 481 843 442 q 1074 553 931 553 q 1199 529 1154 553 q 1345 553 1253 553 q 1480 515 1438 553 q 1522 396 1522 476 q 1508 272 1522 350 q 1478 146 1494 193 q 1431 60 1461 99 q 1232 -12 1376 -12 q 1106 10 1149 -12 q 962 -12 1056 -12 q 825 26 868 -12 q 782 146 782 64 z "},"‹":{"ha":451,"x_min":17,"x_max":433,"o":"m 40 417 l 339 660 l 433 589 l 260 347 l 349 106 l 229 35 l 17 278 l 40 417 z "},"›":{"ha":451,"x_min":-12,"x_max":404,"o":"m 192 660 l 404 417 l 381 278 l 82 35 l -12 106 l 163 347 l 72 589 l 192 660 z "},"⁄":{"ha":699,"x_min":97,"x_max":601,"o":"m 601 924 l 228 -21 q 168 -56 214 -56 l 97 -56 l 471 889 q 531 924 485 924 l 601 924 z "},"€":{"ha":782,"x_min":11,"x_max":783,"o":"m 571 286 l 360 286 l 343 213 q 446 201 393 201 q 646 235 553 201 l 618 15 q 374 -21 529 -21 q 146 36 218 -21 q 74 229 74 93 q 76 286 74 244 l 11 286 l 40 400 l 600 400 l 571 286 m 621 469 l 63 469 l 92 583 l 147 583 q 301 819 200 749 q 592 889 403 889 q 783 863 686 889 l 710 660 l 532 660 q 489 656 506 660 q 456 636 472 653 q 431 583 436 618 l 651 583 l 621 469 z "},"™":{"ha":1121,"x_min":85,"x_max":1107,"o":"m 607 476 l 425 476 l 554 1017 l 788 1017 l 788 811 l 797 811 l 875 1017 l 1107 1017 l 1043 476 l 861 476 l 888 682 l 879 682 l 797 476 l 671 476 l 660 682 l 653 682 l 607 476 m 496 857 l 382 857 l 315 476 l 131 476 l 197 857 l 85 857 l 114 1017 l 525 1017 l 496 857 z "},"Ω":{"ha":976,"x_min":-33,"x_max":942,"o":"m 408 347 l 328 0 l -33 0 l 1 199 l 201 211 l 213 231 q 69 435 69 288 q 197 772 69 654 q 568 889 324 889 q 857 818 772 889 q 942 621 942 747 q 688 228 942 315 l 693 211 l 890 199 l 856 0 l 494 0 l 536 347 q 588 350 569 347 q 622 367 606 353 q 643 407 639 381 l 689 667 l 464 667 q 387 654 413 667 q 354 597 361 642 l 322 417 q 321 397 321 410 q 342 356 321 365 q 408 347 363 347 z "},"∂":{"ha":819,"x_min":53,"x_max":768,"o":"m 463 632 l 510 631 l 514 668 l 293 725 l 293 868 l 506 868 q 695 703 622 818 q 768 443 768 588 q 675 117 768 244 q 547 16 628 53 q 358 -21 465 -21 q 126 47 200 -21 q 53 249 53 114 q 463 632 53 632 m 350 388 l 322 182 l 363 182 q 410 185 393 182 q 444 201 428 188 q 463 240 460 215 l 490 446 l 449 446 q 378 435 401 446 q 350 388 354 425 z "},"∆":{"ha":976,"x_min":3,"x_max":851,"o":"m 433 868 l 701 868 l 851 72 l 814 0 l 17 0 l 3 72 l 433 868 m 539 247 l 492 618 l 478 618 l 276 208 l 494 208 q 539 247 539 208 z "},"∏":{"ha":1111,"x_min":78,"x_max":1104,"o":"m 175 868 l 896 868 q 913 918 904 889 l 1104 908 q 1044 708 1078 757 q 957 660 1011 660 l 804 -208 l 540 -208 l 693 660 l 608 660 q 548 645 569 660 q 517 590 526 631 l 311 -208 l 78 -208 l 256 672 l 144 699 l 175 868 z "},"∑":{"ha":908,"x_min":-22,"x_max":888,"o":"m 735 0 l 668 -208 l -10 -208 l -22 -136 l 332 293 l 181 796 l 218 868 l 888 868 l 833 694 l 583 660 q 517 614 517 650 q 521 590 517 603 l 603 343 l 326 19 l 333 0 l 735 0 z "},"−":{"ha":833,"x_min":99,"x_max":735,"o":"m 99 333 l 133 533 l 735 533 l 700 333 l 99 333 z "},"√":{"ha":756,"x_min":65,"x_max":903,"o":"m 756 767 l 438 0 l 157 0 l 65 694 l 339 694 l 379 250 l 393 250 l 642 903 l 903 903 l 861 767 l 756 767 z "},"∞":{"ha":1257,"x_min":71,"x_max":1157,"o":"m 749 -21 q 647 -6 688 -21 q 593 24 607 8 l 624 110 l 607 117 q 485 10 543 42 q 351 -21 426 -21 q 139 41 207 -21 q 71 228 71 103 q 161 561 71 422 q 287 674 207 632 q 451 715 367 715 q 578 701 536 715 q 633 671 619 686 l 601 585 l 619 578 q 747 684 686 653 q 886 715 808 715 q 1092 653 1026 715 q 1157 481 1157 592 q 1134 287 1157 371 q 1065 132 1111 203 q 937 20 1018 61 q 749 -21 856 -21 m 878 268 l 915 485 q 840 473 869 485 q 792 426 810 461 l 679 210 l 775 210 q 847 220 822 210 q 878 268 871 231 m 353 426 l 314 210 q 391 221 361 210 q 439 268 421 232 l 550 485 l 453 485 q 383 474 406 485 q 353 426 360 464 z "},"∫":{"ha":518,"x_min":-125,"x_max":592,"o":"m 413 596 l 263 -57 q 206 -143 251 -108 q 97 -193 161 -178 q -125 -219 -11 -219 l -106 -57 q 19 -13 -8 -36 q 58 63 46 10 l 207 715 q 262 801 218 767 q 368 851 306 836 q 592 878 476 878 l 571 715 q 450 672 476 694 q 413 596 424 649 z "},"≈":{"ha":833,"x_min":69,"x_max":764,"o":"m 69 168 l 104 368 q 217 315 153 315 q 406 367 281 315 q 593 419 531 419 q 706 368 656 419 l 671 168 q 558 219 621 219 q 369 167 494 219 q 181 115 244 115 q 69 168 118 115 m 128 499 l 163 699 q 275 646 211 646 q 464 698 339 646 q 651 750 589 750 q 764 699 714 750 l 729 499 q 616 550 679 550 q 428 498 553 550 q 240 446 303 446 q 128 499 176 446 z "},"≠":{"ha":833,"x_min":69,"x_max":768,"o":"m 768 924 l 639 699 l 764 699 l 729 499 l 525 499 l 450 368 l 706 368 l 671 168 l 336 168 l 228 -21 q 215 -40 221 -35 q 168 -56 200 -56 l 69 -56 l 197 168 l 69 168 l 104 368 l 311 368 l 386 499 l 128 499 l 163 699 l 500 699 l 610 889 q 622 908 617 903 q 669 924 638 924 l 768 924 z "},"≤":{"ha":833,"x_min":43,"x_max":744,"o":"m 43 0 l 78 200 l 679 200 l 644 0 l 43 0 m 689 899 l 744 713 l 346 563 l 344 553 l 676 404 l 554 218 l 132 432 l 176 685 l 689 899 z "},"≥":{"ha":833,"x_min":43,"x_max":750,"o":"m 43 0 l 78 200 l 679 200 l 644 0 l 43 0 m 193 218 l 138 404 l 536 554 l 538 564 l 206 713 l 328 899 l 750 685 l 706 432 l 193 218 z "},"◊":{"ha":972,"x_min":74,"x_max":864,"o":"m 508 -208 l 242 -208 l 74 329 l 432 868 l 699 868 l 864 329 l 508 -208 m 326 331 l 413 56 l 432 56 l 610 328 l 526 599 l 507 599 l 326 331 z "},"ﬁ":{"ha":840,"x_min":43,"x_max":831,"o":"m 439 0 l 529 514 l 397 514 l 307 0 l 43 0 l 133 514 l 68 514 l 100 694 l 165 694 l 189 778 q 450 938 235 938 q 656 903 550 938 l 586 740 l 439 753 l 429 694 l 607 694 l 831 729 l 703 0 l 439 0 z "},"ﬂ":{"ha":869,"x_min":43,"x_max":883,"o":"m 439 753 l 429 694 l 508 694 l 476 514 l 397 514 l 307 0 l 43 0 l 133 514 l 68 514 l 100 694 l 165 694 l 189 778 q 450 938 235 938 q 656 903 550 938 l 883 924 l 756 199 q 817 189 793 190 l 771 -15 q 533 11 588 -15 q 493 47 510 24 q 476 89 476 69 q 479 131 476 108 l 586 740 l 439 753 z "}," ":{"ha":278,"x_min":0,"x_max":0,"o":""}}}
